<svg xmlns="http://www.w3.org/2000/svg" xmlns:xlink="http://www.w3.org/1999/xlink" width="158" zoomAndPan="magnify" viewBox="0 0 118.5 34.499999" height="46" preserveAspectRatio="xMidYMid meet" version="1.0"><defs><g/><clipPath id="5bdd9a1d91"><path d="M 0.601562 5 L 27 5 L 27 34.007812 L 0.601562 34.007812 Z M 0.601562 5 " clip-rule="nonzero"/></clipPath></defs><g clip-path="url(#5bdd9a1d91)"><path fill="#ffffff" d="M 7.832031 34.28125 C 7.308594 34.28125 6.800781 34.1875 6.3125 34.003906 C 5.820312 33.820312 5.378906 33.554688 4.984375 33.210938 C 4.585938 32.867188 4.265625 32.464844 4.011719 32.003906 C 3.761719 31.542969 3.597656 31.054688 3.519531 30.53125 L 0.714844 10.933594 C 0.675781 10.648438 0.660156 10.363281 0.675781 10.078125 C 0.691406 9.792969 0.734375 9.507812 0.804688 9.230469 C 0.875 8.953125 0.972656 8.6875 1.09375 8.425781 C 1.21875 8.167969 1.367188 7.925781 1.535156 7.695312 C 1.707031 7.464844 1.898438 7.253906 2.113281 7.066406 C 2.324219 6.875 2.554688 6.707031 2.800781 6.558594 C 3.046875 6.414062 3.304688 6.292969 3.574219 6.199219 C 3.84375 6.105469 4.121094 6.039062 4.402344 6 L 9.710938 5.230469 L 10.199219 8.535156 L 4.890625 9.324219 C 4.757812 9.34375 4.632812 9.386719 4.515625 9.453125 C 4.402344 9.523438 4.300781 9.609375 4.222656 9.71875 C 4.140625 9.824219 4.085938 9.945312 4.050781 10.074219 C 4.019531 10.203125 4.011719 10.335938 4.03125 10.46875 L 6.832031 30.042969 C 6.851562 30.175781 6.894531 30.300781 6.964844 30.414062 C 7.03125 30.53125 7.117188 30.628906 7.226562 30.707031 C 7.332031 30.789062 7.449219 30.847656 7.578125 30.878906 C 7.707031 30.914062 7.835938 30.921875 7.96875 30.90625 L 22.691406 28.789062 C 22.914062 28.757812 23.097656 28.652344 23.230469 28.46875 C 23.367188 28.285156 23.417969 28.082031 23.386719 27.855469 L 23.199219 26.644531 L 26.515625 26.15625 L 26.703125 27.367188 C 26.738281 27.640625 26.75 27.914062 26.734375 28.1875 C 26.71875 28.460938 26.675781 28.734375 26.605469 29 C 26.535156 29.265625 26.441406 29.523438 26.324219 29.769531 C 26.207031 30.015625 26.0625 30.25 25.898438 30.472656 C 25.734375 30.691406 25.550781 30.894531 25.347656 31.078125 C 25.144531 31.261719 24.925781 31.425781 24.6875 31.566406 C 24.453125 31.707031 24.207031 31.824219 23.949219 31.914062 C 23.691406 32.007812 23.425781 32.074219 23.15625 32.117188 L 8.4375 34.257812 C 8.226562 34.257812 8.019531 34.28125 7.832031 34.28125 Z M 7.832031 34.28125 " fill-opacity="0.4" fill-rule="nonzero"/></g><path fill="#ffffff" d="M 27.675781 28.066406 L 12.929688 28.066406 C 12.644531 28.066406 12.359375 28.039062 12.078125 27.984375 C 11.796875 27.925781 11.527344 27.84375 11.261719 27.734375 C 10.996094 27.625 10.746094 27.488281 10.507812 27.328125 C 10.269531 27.171875 10.050781 26.988281 9.847656 26.785156 C 9.644531 26.582031 9.464844 26.359375 9.304688 26.121094 C 9.148438 25.882812 9.011719 25.628906 8.902344 25.363281 C 8.792969 25.097656 8.710938 24.824219 8.65625 24.542969 C 8.601562 24.261719 8.574219 23.976562 8.574219 23.6875 L 8.574219 4.160156 C 8.574219 3.875 8.601562 3.589844 8.65625 3.308594 C 8.710938 3.023438 8.796875 2.75 8.90625 2.484375 C 9.015625 2.21875 9.148438 1.96875 9.308594 1.726562 C 9.464844 1.488281 9.648438 1.269531 9.847656 1.066406 C 10.050781 0.863281 10.273438 0.679688 10.511719 0.519531 C 10.75 0.359375 11 0.226562 11.265625 0.117188 C 11.527344 0.0078125 11.800781 -0.0742188 12.082031 -0.132812 C 12.363281 -0.1875 12.648438 -0.214844 12.933594 -0.214844 L 27.679688 -0.214844 C 27.96875 -0.214844 28.25 -0.1875 28.53125 -0.132812 C 28.8125 -0.0742188 29.085938 0.0078125 29.351562 0.117188 C 29.613281 0.226562 29.867188 0.359375 30.105469 0.519531 C 30.34375 0.679688 30.5625 0.863281 30.765625 1.066406 C 30.96875 1.269531 31.148438 1.488281 31.308594 1.726562 C 31.464844 1.96875 31.601562 2.21875 31.710938 2.484375 C 31.820312 2.75 31.902344 3.023438 31.957031 3.308594 C 32.011719 3.589844 32.039062 3.875 32.039062 4.160156 L 32.039062 23.6875 C 32.039062 23.976562 32.011719 24.261719 31.957031 24.542969 C 31.902344 24.828125 31.820312 25.101562 31.710938 25.367188 C 31.601562 25.632812 31.464844 25.882812 31.308594 26.125 C 31.148438 26.363281 30.96875 26.585938 30.765625 26.789062 C 30.5625 26.992188 30.339844 27.171875 30.101562 27.332031 C 29.863281 27.492188 29.613281 27.625 29.347656 27.734375 C 29.082031 27.847656 28.808594 27.929688 28.527344 27.984375 C 28.246094 28.039062 27.964844 28.066406 27.675781 28.066406 Z M 12.929688 3.160156 C 12.796875 3.160156 12.667969 3.183594 12.546875 3.234375 C 12.425781 3.285156 12.316406 3.359375 12.222656 3.453125 C 12.128906 3.546875 12.058594 3.65625 12.007812 3.777344 C 11.957031 3.902344 11.933594 4.027344 11.933594 4.164062 L 11.933594 23.6875 C 11.933594 23.824219 11.957031 23.949219 12.007812 24.074219 C 12.058594 24.195312 12.128906 24.304688 12.222656 24.398438 C 12.316406 24.492188 12.425781 24.566406 12.546875 24.617188 C 12.667969 24.667969 12.796875 24.691406 12.929688 24.691406 L 27.675781 24.691406 C 27.808594 24.691406 27.9375 24.667969 28.058594 24.617188 C 28.183594 24.566406 28.289062 24.492188 28.382812 24.398438 C 28.476562 24.304688 28.550781 24.195312 28.601562 24.074219 C 28.652344 23.949219 28.675781 23.824219 28.675781 23.6875 L 28.675781 4.160156 C 28.675781 4.027344 28.652344 3.902344 28.601562 3.777344 C 28.550781 3.652344 28.476562 3.546875 28.382812 3.453125 C 28.289062 3.359375 28.183594 3.285156 28.058594 3.234375 C 27.9375 3.183594 27.808594 3.160156 27.675781 3.160156 Z M 12.929688 3.160156 " fill-opacity="1" fill-rule="nonzero"/><path fill="#ffffff" d="M 23.992188 14.589844 C 23.992188 15.0625 23.902344 15.515625 23.722656 15.953125 C 23.542969 16.386719 23.285156 16.773438 22.953125 17.105469 C 22.621094 17.441406 22.238281 17.699219 21.800781 17.878906 C 21.367188 18.058594 20.914062 18.152344 20.445312 18.152344 C 19.972656 18.152344 19.523438 18.058594 19.085938 17.878906 C 18.652344 17.699219 18.269531 17.441406 17.9375 17.105469 C 17.605469 16.773438 17.347656 16.386719 17.167969 15.953125 C 16.988281 15.515625 16.898438 15.0625 16.898438 14.589844 Z M 23.992188 14.589844 " fill-opacity="0.4" fill-rule="nonzero"/><path fill="#ffffff" d="M 17.292969 11.238281 C 17.292969 11.414062 17.257812 11.589844 17.191406 11.753906 C 17.121094 11.917969 17.023438 12.066406 16.898438 12.191406 C 16.773438 12.316406 16.628906 12.414062 16.460938 12.484375 C 16.296875 12.550781 16.125 12.585938 15.949219 12.585938 C 15.769531 12.585938 15.597656 12.550781 15.433594 12.484375 C 15.269531 12.414062 15.125 12.316406 14.996094 12.191406 C 14.871094 12.066406 14.773438 11.917969 14.707031 11.753906 C 14.636719 11.589844 14.605469 11.417969 14.605469 11.238281 C 14.601562 11.058594 14.636719 10.886719 14.707031 10.722656 C 14.773438 10.554688 14.871094 10.410156 14.996094 10.28125 C 15.121094 10.15625 15.269531 10.058594 15.433594 9.992188 C 15.597656 9.921875 15.769531 9.886719 15.945312 9.886719 C 16.125 9.886719 16.296875 9.921875 16.460938 9.988281 C 16.625 10.058594 16.773438 10.15625 16.898438 10.28125 C 17.023438 10.410156 17.121094 10.554688 17.1875 10.71875 C 17.257812 10.886719 17.292969 11.058594 17.292969 11.238281 Z M 17.292969 11.238281 " fill-opacity="0.4" fill-rule="nonzero"/><path fill="#ffffff" d="M 26.007812 11.238281 C 26.007812 11.414062 25.972656 11.589844 25.90625 11.753906 C 25.839844 11.917969 25.742188 12.066406 25.613281 12.191406 C 25.488281 12.320312 25.34375 12.417969 25.179688 12.484375 C 25.015625 12.554688 24.84375 12.589844 24.664062 12.589844 C 24.484375 12.589844 24.3125 12.554688 24.148438 12.484375 C 23.984375 12.417969 23.839844 12.320312 23.710938 12.191406 C 23.585938 12.066406 23.488281 11.921875 23.421875 11.753906 C 23.351562 11.589844 23.320312 11.417969 23.320312 11.238281 C 23.320312 11.058594 23.351562 10.886719 23.421875 10.722656 C 23.488281 10.554688 23.585938 10.410156 23.710938 10.28125 C 23.839844 10.15625 23.984375 10.058594 24.148438 9.988281 C 24.3125 9.921875 24.484375 9.886719 24.664062 9.886719 C 24.84375 9.886719 25.011719 9.921875 25.179688 9.988281 C 25.34375 10.058594 25.488281 10.15625 25.613281 10.28125 C 25.738281 10.410156 25.835938 10.554688 25.90625 10.71875 C 25.972656 10.886719 26.007812 11.058594 26.007812 11.238281 Z M 26.007812 11.238281 " fill-opacity="0.4" fill-rule="nonzero"/><g fill="#ffffff" fill-opacity="1"><g transform="translate(33.708862, 22.492176)"><g><path d="M 11.515625 0 L 11.515625 -6.28125 C 11.515625 -7.832031 11.40625 -8.609375 11.1875 -8.609375 C 10.707031 -8.609375 10.015625 -8.335938 9.109375 -7.796875 C 9.171875 -7.285156 9.203125 -6.78125 9.203125 -6.28125 L 9.203125 0 C 9.203125 0.0820312 9.195312 0.140625 9.1875 0.171875 C 9.113281 0.273438 8.847656 0.328125 8.390625 0.328125 C 7.929688 0.328125 7.457031 0.289062 6.96875 0.21875 C 6.476562 0.15625 6.234375 0.0820312 6.234375 0 L 6.234375 -7.046875 C 6.203125 -8.085938 6.085938 -8.609375 5.890625 -8.609375 C 5.398438 -8.609375 4.738281 -8.359375 3.90625 -7.859375 L 3.90625 0 C 3.90625 0.0820312 3.898438 0.140625 3.890625 0.171875 C 3.816406 0.273438 3.550781 0.328125 3.09375 0.328125 C 2.632812 0.328125 2.160156 0.289062 1.671875 0.21875 C 1.179688 0.15625 0.9375 0.0820312 0.9375 0 L 0.9375 -10.265625 C 0.9375 -10.484375 1.210938 -10.59375 1.765625 -10.59375 C 2.628906 -10.59375 3.125 -10.484375 3.25 -10.265625 C 3.25 -10.234375 3.253906 -10.21875 3.265625 -10.21875 L 3.65625 -9.4375 C 4.820312 -10.207031 5.6875 -10.59375 6.25 -10.59375 C 7.457031 -10.59375 8.273438 -10.148438 8.703125 -9.265625 C 9.972656 -10.148438 10.921875 -10.59375 11.546875 -10.59375 C 12.566406 -10.59375 13.3125 -10.273438 13.78125 -9.640625 C 14.257812 -9.003906 14.5 -7.882812 14.5 -6.28125 L 14.5 0 C 14.5 0.0820312 14.492188 0.140625 14.484375 0.171875 C 14.410156 0.273438 14.140625 0.328125 13.671875 0.328125 C 13.210938 0.328125 12.738281 0.289062 12.25 0.21875 C 11.757812 0.15625 11.515625 0.0820312 11.515625 0 Z M 11.515625 0 "/></g></g></g><g fill="#ffffff" fill-opacity="1"><g transform="translate(49.109699, 22.492176)"><g><path d="M 0.96875 0 L 0.96875 -10.265625 C 0.96875 -10.484375 1.21875 -10.59375 1.71875 -10.59375 C 2.21875 -10.59375 2.6875 -10.554688 3.125 -10.484375 C 3.5625 -10.421875 3.78125 -10.347656 3.78125 -10.265625 L 3.78125 0 C 3.78125 0.0820312 3.773438 0.140625 3.765625 0.171875 C 3.691406 0.273438 3.425781 0.328125 2.96875 0.328125 C 2.519531 0.328125 2.070312 0.289062 1.625 0.21875 C 1.1875 0.15625 0.96875 0.0820312 0.96875 0 Z M 2.25 -12.90625 C 1.257812 -12.90625 0.765625 -13.398438 0.765625 -14.390625 C 0.765625 -15.390625 1.257812 -15.890625 2.25 -15.890625 C 3.25 -15.890625 3.75 -15.390625 3.75 -14.390625 C 3.75 -13.398438 3.25 -12.90625 2.25 -12.90625 Z M 2.25 -12.90625 "/></g></g></g><g fill="#ffffff" fill-opacity="1"><g transform="translate(53.802304, 22.492176)"><g><path d="M 8.515625 -0.4375 L 8.515625 -9.828125 L 7.171875 -7.328125 L 5.09375 -7.328125 L 3.828125 -9.78125 L 3.828125 -0.453125 C 3.828125 -0.203125 3.820312 -0.0351562 3.8125 0.046875 C 3.75 0.234375 3.476562 0.328125 3 0.328125 C 1.625 0.328125 0.9375 0.0703125 0.9375 -0.4375 L 0.9375 -15.109375 C 0.9375 -15.628906 1.410156 -15.890625 2.359375 -15.890625 C 3.304688 -15.890625 3.878906 -15.632812 4.078125 -15.125 L 6.171875 -9.78125 L 8.359375 -15.140625 C 8.460938 -15.441406 8.59375 -15.640625 8.75 -15.734375 C 8.914062 -15.835938 9.195312 -15.890625 9.59375 -15.890625 C 10.59375 -15.890625 11.097656 -15.617188 11.109375 -15.078125 L 11.4375 -8.921875 L 11.4375 -0.578125 C 11.4375 -0.160156 11.398438 0.09375 11.328125 0.1875 C 11.253906 0.28125 11.003906 0.328125 10.578125 0.328125 C 10.160156 0.328125 9.820312 0.3125 9.5625 0.28125 C 9.300781 0.257812 9.0625 0.1875 8.84375 0.0625 C 8.625 -0.0507812 8.515625 -0.21875 8.515625 -0.4375 Z M 8.515625 -0.4375 "/></g></g></g><g fill="#ffffff" fill-opacity="1"><g transform="translate(66.143651, 22.492176)"><g><path d="M 4.703125 0.328125 C 3.222656 0.328125 2.195312 -0.0664062 1.625 -0.859375 C 1.050781 -1.660156 0.765625 -3.097656 0.765625 -5.171875 C 0.765625 -6.660156 0.894531 -7.796875 1.15625 -8.578125 C 1.414062 -9.359375 1.8125 -9.890625 2.34375 -10.171875 C 2.875 -10.453125 3.65625 -10.59375 4.6875 -10.59375 C 5.726562 -10.59375 6.515625 -10.445312 7.046875 -10.15625 C 7.578125 -9.863281 7.960938 -9.320312 8.203125 -8.53125 C 8.453125 -7.75 8.578125 -6.632812 8.578125 -5.1875 C 8.578125 -5.101562 8.578125 -5.019531 8.578125 -4.9375 C 8.578125 -4.851562 8.414062 -4.773438 8.09375 -4.703125 C 7.769531 -4.640625 7.382812 -4.609375 6.9375 -4.609375 L 3.75 -4.609375 C 3.769531 -2.992188 3.882812 -2.078125 4.09375 -1.859375 C 4.21875 -1.753906 4.421875 -1.703125 4.703125 -1.703125 C 6.503906 -1.703125 7.738281 -1.789062 8.40625 -1.96875 C 8.425781 -1.976562 8.445312 -1.984375 8.46875 -1.984375 C 8.5625 -2.015625 8.640625 -1.957031 8.703125 -1.8125 C 8.765625 -1.675781 8.796875 -1.351562 8.796875 -0.84375 C 8.796875 -0.332031 8.6875 -0.0507812 8.46875 0 C 7.894531 0.21875 6.640625 0.328125 4.703125 0.328125 Z M 3.75 -7.875 L 3.75 -6.265625 L 5.828125 -6.265625 C 5.773438 -7.867188 5.617188 -8.671875 5.359375 -8.671875 C 4.890625 -8.671875 4.503906 -8.597656 4.203125 -8.453125 C 3.898438 -8.316406 3.75 -8.125 3.75 -7.875 Z M 3.75 -7.875 "/></g></g></g><g fill="#ffffff" fill-opacity="1"><g transform="translate(75.528859, 22.492176)"><g><path d="M 3.3125 0.328125 C 2.289062 0.328125 1.539062 -0.0859375 1.0625 -0.921875 C 0.59375 -1.753906 0.359375 -3.203125 0.359375 -5.265625 C 0.359375 -7.335938 0.65625 -8.742188 1.25 -9.484375 C 1.851562 -10.222656 2.988281 -10.59375 4.65625 -10.59375 L 5.640625 -10.59375 L 5.640625 -15.5625 C 5.640625 -15.78125 5.878906 -15.890625 6.359375 -15.890625 C 6.847656 -15.890625 7.25 -15.859375 7.5625 -15.796875 C 7.882812 -15.734375 8.050781 -15.65625 8.0625 -15.5625 L 8.421875 -8.953125 L 8.421875 0 C 8.421875 0.0820312 8.414062 0.140625 8.40625 0.171875 C 8.332031 0.273438 8.070312 0.328125 7.625 0.328125 C 7.1875 0.328125 6.8125 0.296875 6.5 0.234375 C 6.195312 0.171875 6.046875 0.09375 6.046875 0 L 5.640625 -0.640625 C 5.242188 -0.378906 4.960938 -0.191406 4.796875 -0.078125 C 4.335938 0.191406 3.84375 0.328125 3.3125 0.328125 Z M 4.65625 -8.609375 C 4.144531 -8.609375 3.796875 -8.394531 3.609375 -7.96875 C 3.421875 -7.550781 3.328125 -6.84375 3.328125 -5.84375 C 3.328125 -4.84375 3.328125 -4.179688 3.328125 -3.859375 C 3.335938 -3.546875 3.351562 -3.179688 3.375 -2.765625 C 3.394531 -2.023438 3.488281 -1.65625 3.65625 -1.65625 C 4.15625 -1.65625 4.816406 -1.90625 5.640625 -2.40625 L 5.640625 -8.609375 Z M 4.65625 -8.609375 "/></g></g></g><g fill="#ffffff" fill-opacity="1"><g transform="translate(84.852059, 22.492176)"><g><path d="M 0.96875 0 L 0.96875 -10.265625 C 0.96875 -10.484375 1.21875 -10.59375 1.71875 -10.59375 C 2.21875 -10.59375 2.6875 -10.554688 3.125 -10.484375 C 3.5625 -10.421875 3.78125 -10.347656 3.78125 -10.265625 L 3.78125 0 C 3.78125 0.0820312 3.773438 0.140625 3.765625 0.171875 C 3.691406 0.273438 3.425781 0.328125 2.96875 0.328125 C 2.519531 0.328125 2.070312 0.289062 1.625 0.21875 C 1.1875 0.15625 0.96875 0.0820312 0.96875 0 Z M 2.25 -12.90625 C 1.257812 -12.90625 0.765625 -13.398438 0.765625 -14.390625 C 0.765625 -15.390625 1.257812 -15.890625 2.25 -15.890625 C 3.25 -15.890625 3.75 -15.390625 3.75 -14.390625 C 3.75 -13.398438 3.25 -12.90625 2.25 -12.90625 Z M 2.25 -12.90625 "/></g></g></g><g fill="#ffffff" fill-opacity="1"><g transform="translate(89.544663, 22.492176)"><g><path d="M 6.6875 -7.8125 L 6.5625 -7.859375 L 5.765625 -8.25 C 5.171875 -8.488281 4.660156 -8.609375 4.234375 -8.609375 C 3.617188 -8.578125 3.3125 -8.28125 3.3125 -7.71875 C 3.3125 -7.5 3.429688 -7.316406 3.671875 -7.171875 C 3.910156 -7.035156 4.101562 -6.929688 4.25 -6.859375 C 4.40625 -6.785156 4.628906 -6.675781 4.921875 -6.53125 C 5.953125 -6.09375 6.71875 -5.601562 7.21875 -5.0625 C 7.726562 -4.53125 7.984375 -4 7.984375 -3.46875 C 7.984375 -2.332031 7.679688 -1.414062 7.078125 -0.71875 C 6.472656 -0.0195312 5.648438 0.328125 4.609375 0.328125 C 3.566406 0.328125 2.75 0.191406 2.15625 -0.078125 C 1.5625 -0.359375 1.0625 -0.753906 0.65625 -1.265625 C 0.601562 -1.285156 0.578125 -1.320312 0.578125 -1.375 C 0.578125 -1.4375 0.585938 -1.507812 0.609375 -1.59375 C 0.628906 -1.675781 0.789062 -1.898438 1.09375 -2.265625 C 1.394531 -2.628906 1.640625 -2.8125 1.828125 -2.8125 C 1.878906 -2.8125 1.929688 -2.785156 1.984375 -2.734375 C 2.710938 -2.148438 3.421875 -1.859375 4.109375 -1.859375 C 4.503906 -1.859375 4.796875 -1.96875 4.984375 -2.1875 C 5.179688 -2.414062 5.28125 -2.660156 5.28125 -2.921875 C 5.28125 -3.179688 5.164062 -3.394531 4.9375 -3.5625 C 4.71875 -3.726562 4.445312 -3.890625 4.125 -4.046875 C 3.800781 -4.203125 3.625 -4.285156 3.59375 -4.296875 C 3.570312 -4.316406 3.535156 -4.335938 3.484375 -4.359375 C 3.429688 -4.390625 3.382812 -4.410156 3.34375 -4.421875 C 2.644531 -4.765625 2.050781 -5.195312 1.5625 -5.71875 C 1.070312 -6.238281 0.828125 -6.816406 0.828125 -7.453125 C 0.828125 -8.554688 1.113281 -9.351562 1.6875 -9.84375 C 2.257812 -10.34375 3.164062 -10.59375 4.40625 -10.59375 C 4.875 -10.59375 5.320312 -10.535156 5.75 -10.421875 C 6.332031 -10.273438 6.75 -10.097656 7 -9.890625 L 7.015625 -9.890625 C 7.117188 -9.816406 7.179688 -9.734375 7.203125 -9.640625 C 7.222656 -9.546875 7.210938 -9.335938 7.171875 -9.015625 C 7.035156 -8.210938 6.875 -7.8125 6.6875 -7.8125 Z M 6.6875 -7.8125 "/></g></g></g><g fill="#ffffff" fill-opacity="1"><g transform="translate(98.123655, 22.492176)"><g><path d="M 5.671875 -0.640625 C 4.953125 0.00390625 4.3125 0.328125 3.75 0.328125 C 3.195312 0.328125 2.742188 0.289062 2.390625 0.21875 C 2.046875 0.144531 1.738281 -0.015625 1.46875 -0.265625 C 1.195312 -0.523438 1.003906 -0.894531 0.890625 -1.375 C 0.773438 -1.863281 0.71875 -2.507812 0.71875 -3.3125 C 0.71875 -4.425781 1.265625 -5.191406 2.359375 -5.609375 L 5.3125 -6.375 C 5.300781 -7.269531 5.210938 -7.847656 5.046875 -8.109375 C 4.878906 -8.367188 4.519531 -8.5 3.96875 -8.5 C 3.414062 -8.5 2.941406 -8.410156 2.546875 -8.234375 L 1.828125 -7.9375 L 1.796875 -7.9375 C 1.671875 -7.875 1.5625 -7.929688 1.46875 -8.109375 C 1.21875 -8.628906 1.09375 -9.035156 1.09375 -9.328125 C 1.09375 -9.628906 1.113281 -9.796875 1.15625 -9.828125 C 1.207031 -9.867188 1.234375 -9.894531 1.234375 -9.90625 C 1.929688 -10.363281 2.828125 -10.59375 3.921875 -10.59375 C 5.015625 -10.59375 5.859375 -10.445312 6.453125 -10.15625 C 7.046875 -9.863281 7.476562 -9.332031 7.75 -8.5625 C 8.019531 -7.800781 8.15625 -6.671875 8.15625 -5.171875 L 8.109375 0 C 8.109375 0.0820312 8.09375 0.140625 8.0625 0.171875 C 8.007812 0.273438 7.75 0.328125 7.28125 0.328125 C 6.425781 0.328125 6 0.21875 6 0 Z M 3.015625 -3.265625 C 3.015625 -2.273438 3.304688 -1.753906 3.890625 -1.703125 C 4.285156 -1.703125 4.578125 -1.769531 4.765625 -1.90625 C 5.148438 -2.164062 5.34375 -3.144531 5.34375 -4.84375 C 4.625 -4.75 4.054688 -4.550781 3.640625 -4.25 C 3.222656 -3.957031 3.015625 -3.628906 3.015625 -3.265625 Z M 3.015625 -3.265625 "/></g></g></g><g fill="#ffffff" fill-opacity="1"><g transform="translate(107.116087, 22.492176)"><g><path d="M 6.25 -10.59375 C 7.269531 -10.59375 8.015625 -10.273438 8.484375 -9.640625 C 8.960938 -9.003906 9.203125 -7.882812 9.203125 -6.28125 L 9.203125 0 C 9.203125 0.0820312 9.195312 0.140625 9.1875 0.171875 C 9.113281 0.273438 8.847656 0.328125 8.390625 0.328125 C 7.929688 0.328125 7.457031 0.289062 6.96875 0.21875 C 6.488281 0.15625 6.25 0.0820312 6.25 0 L 6.234375 -6.28125 C 6.234375 -7.832031 6.117188 -8.609375 5.890625 -8.609375 C 5.398438 -8.609375 4.738281 -8.359375 3.90625 -7.859375 L 3.90625 0 C 3.90625 0.0820312 3.898438 0.140625 3.890625 0.171875 C 3.816406 0.273438 3.550781 0.328125 3.09375 0.328125 C 2.632812 0.328125 2.160156 0.289062 1.671875 0.21875 C 1.179688 0.15625 0.9375 0.0820312 0.9375 0 L 0.9375 -10.265625 C 0.9375 -10.484375 1.210938 -10.59375 1.765625 -10.59375 C 2.628906 -10.59375 3.125 -10.484375 3.25 -10.265625 C 3.25 -10.234375 3.253906 -10.21875 3.265625 -10.21875 L 3.65625 -9.4375 C 4.820312 -10.207031 5.6875 -10.59375 6.25 -10.59375 Z M 6.25 -10.59375 "/></g></g></g></svg>