<svg xmlns="http://www.w3.org/2000/svg" xmlns:xlink="http://www.w3.org/1999/xlink" width="158" zoomAndPan="magnify" viewBox="0 0 118.5 34.499999" height="46" preserveAspectRatio="xMidYMid meet" version="1.0"><defs><g/><clipPath id="3af72792aa"><path d="M 0.601562 5 L 27 5 L 27 34.007812 L 0.601562 34.007812 Z M 0.601562 5 " clip-rule="nonzero"/></clipPath></defs><g clip-path="url(#3af72792aa)"><path fill="#abd3ff" d="M 7.875 34.515625 C 7.351562 34.515625 6.839844 34.421875 6.347656 34.238281 C 5.851562 34.054688 5.40625 33.789062 5.007812 33.445312 C 4.613281 33.097656 4.285156 32.695312 4.03125 32.230469 C 3.78125 31.769531 3.613281 31.277344 3.539062 30.753906 L 0.71875 11.089844 C 0.675781 10.804688 0.660156 10.519531 0.675781 10.230469 C 0.691406 9.945312 0.734375 9.660156 0.804688 9.382812 C 0.875 9.101562 0.972656 8.835938 1.097656 8.574219 C 1.222656 8.316406 1.371094 8.070312 1.542969 7.839844 C 1.714844 7.609375 1.90625 7.398438 2.121094 7.207031 C 2.335938 7.015625 2.566406 6.847656 2.8125 6.699219 C 3.0625 6.554688 3.320312 6.433594 3.589844 6.339844 C 3.863281 6.242188 4.140625 6.175781 4.425781 6.136719 L 9.765625 5.367188 L 10.253906 8.683594 L 4.914062 9.476562 C 4.78125 9.496094 4.65625 9.539062 4.542969 9.605469 C 4.425781 9.671875 4.328125 9.761719 4.246094 9.867188 C 4.164062 9.976562 4.105469 10.09375 4.074219 10.222656 C 4.039062 10.355469 4.03125 10.484375 4.050781 10.621094 L 6.875 30.265625 C 6.894531 30.398438 6.9375 30.523438 7.003906 30.636719 C 7.074219 30.753906 7.160156 30.851562 7.265625 30.933594 C 7.375 31.015625 7.492188 31.070312 7.621094 31.105469 C 7.75 31.140625 7.882812 31.148438 8.015625 31.128906 L 22.828125 29.003906 C 23.054688 28.972656 23.234375 28.867188 23.371094 28.683594 C 23.507812 28.5 23.558594 28.296875 23.527344 28.070312 L 23.339844 26.855469 L 26.675781 26.363281 L 26.859375 27.578125 C 26.898438 27.851562 26.910156 28.125 26.890625 28.402344 C 26.875 28.675781 26.832031 28.949219 26.761719 29.214844 C 26.695312 29.484375 26.597656 29.742188 26.480469 29.988281 C 26.359375 30.238281 26.21875 30.472656 26.050781 30.695312 C 25.886719 30.914062 25.703125 31.117188 25.496094 31.300781 C 25.292969 31.488281 25.070312 31.648438 24.835938 31.789062 C 24.597656 31.933594 24.351562 32.050781 24.089844 32.140625 C 23.832031 32.234375 23.566406 32.300781 23.292969 32.34375 L 8.484375 34.492188 C 8.273438 34.492188 8.0625 34.515625 7.875 34.515625 Z M 7.875 34.515625 " fill-opacity="1" fill-rule="nonzero"/></g><path fill="#007aff" d="M 27.839844 28.28125 L 13.003906 28.28125 C 12.71875 28.28125 12.433594 28.253906 12.148438 28.195312 C 11.867188 28.140625 11.59375 28.058594 11.328125 27.945312 C 11.0625 27.835938 10.808594 27.703125 10.570312 27.542969 C 10.328125 27.378906 10.109375 27.199219 9.90625 26.996094 C 9.703125 26.789062 9.519531 26.570312 9.359375 26.328125 C 9.199219 26.089844 9.066406 25.835938 8.953125 25.570312 C 8.84375 25.304688 8.761719 25.027344 8.707031 24.746094 C 8.648438 24.464844 8.621094 24.175781 8.621094 23.890625 L 8.621094 4.292969 C 8.621094 4.003906 8.648438 3.71875 8.707031 3.433594 C 8.761719 3.152344 8.84375 2.878906 8.957031 2.609375 C 9.066406 2.34375 9.199219 2.089844 9.359375 1.851562 C 9.519531 1.613281 9.703125 1.390625 9.90625 1.1875 C 10.109375 0.980469 10.332031 0.800781 10.570312 0.640625 C 10.808594 0.480469 11.0625 0.34375 11.328125 0.234375 C 11.59375 0.125 11.871094 0.0390625 12.152344 -0.015625 C 12.433594 -0.0703125 12.71875 -0.0976562 13.007812 -0.0976562 L 27.84375 -0.0976562 C 28.128906 -0.0976562 28.414062 -0.0703125 28.699219 -0.015625 C 28.980469 0.0429688 29.253906 0.125 29.519531 0.234375 C 29.785156 0.34375 30.039062 0.480469 30.277344 0.640625 C 30.515625 0.800781 30.738281 0.984375 30.941406 1.1875 C 31.144531 1.390625 31.328125 1.613281 31.488281 1.851562 C 31.648438 2.09375 31.78125 2.34375 31.890625 2.613281 C 32 2.878906 32.085938 3.152344 32.140625 3.4375 C 32.195312 3.71875 32.222656 4.003906 32.222656 4.292969 L 32.222656 23.890625 C 32.222656 24.175781 32.195312 24.464844 32.140625 24.746094 C 32.085938 25.027344 32 25.304688 31.890625 25.570312 C 31.78125 25.835938 31.648438 26.089844 31.488281 26.328125 C 31.328125 26.570312 31.144531 26.792969 30.941406 26.996094 C 30.738281 27.199219 30.515625 27.382812 30.277344 27.542969 C 30.035156 27.703125 29.785156 27.835938 29.519531 27.949219 C 29.253906 28.058594 28.976562 28.140625 28.695312 28.195312 C 28.414062 28.253906 28.128906 28.28125 27.839844 28.28125 Z M 13.007812 3.289062 C 12.875 3.285156 12.746094 3.3125 12.621094 3.363281 C 12.5 3.414062 12.390625 3.484375 12.296875 3.578125 C 12.203125 3.675781 12.128906 3.78125 12.078125 3.90625 C 12.027344 4.03125 12.003906 4.15625 12.003906 4.292969 L 12.003906 23.890625 C 12.003906 24.023438 12.027344 24.152344 12.078125 24.273438 C 12.128906 24.398438 12.203125 24.507812 12.296875 24.601562 C 12.390625 24.695312 12.5 24.769531 12.621094 24.820312 C 12.746094 24.867188 12.875 24.894531 13.007812 24.894531 L 27.84375 24.894531 C 27.976562 24.894531 28.105469 24.867188 28.226562 24.820312 C 28.351562 24.769531 28.460938 24.695312 28.554688 24.601562 C 28.648438 24.507812 28.71875 24.398438 28.769531 24.273438 C 28.820312 24.152344 28.847656 24.023438 28.84375 23.890625 L 28.84375 4.292969 C 28.847656 4.160156 28.820312 4.03125 28.769531 3.90625 C 28.71875 3.785156 28.648438 3.675781 28.554688 3.582031 C 28.460938 3.484375 28.351562 3.414062 28.226562 3.363281 C 28.105469 3.3125 27.976562 3.289062 27.84375 3.289062 Z M 13.007812 3.289062 " fill-opacity="1" fill-rule="nonzero"/><path fill="#abd3ff" d="M 24.132812 14.757812 C 24.132812 15.230469 24.042969 15.6875 23.859375 16.125 C 23.679688 16.5625 23.421875 16.949219 23.085938 17.28125 C 22.753906 17.617188 22.367188 17.875 21.929688 18.058594 C 21.492188 18.238281 21.035156 18.328125 20.5625 18.328125 C 20.089844 18.328125 19.636719 18.238281 19.199219 18.058594 C 18.761719 17.875 18.375 17.617188 18.039062 17.28125 C 17.707031 16.949219 17.449219 16.5625 17.265625 16.125 C 17.085938 15.6875 16.996094 15.230469 16.996094 14.757812 Z M 24.132812 14.757812 " fill-opacity="1" fill-rule="nonzero"/><path fill="#abd3ff" d="M 17.390625 11.390625 C 17.390625 11.570312 17.359375 11.746094 17.289062 11.910156 C 17.21875 12.078125 17.121094 12.222656 16.996094 12.351562 C 16.871094 12.476562 16.722656 12.574219 16.558594 12.644531 C 16.390625 12.710938 16.21875 12.746094 16.039062 12.746094 C 15.859375 12.746094 15.6875 12.710938 15.523438 12.644531 C 15.355469 12.574219 15.210938 12.476562 15.082031 12.351562 C 14.957031 12.222656 14.859375 12.078125 14.789062 11.910156 C 14.722656 11.746094 14.6875 11.574219 14.6875 11.394531 C 14.6875 11.214844 14.722656 11.039062 14.789062 10.875 C 14.859375 10.707031 14.957031 10.5625 15.082031 10.433594 C 15.210938 10.308594 15.355469 10.210938 15.519531 10.140625 C 15.6875 10.074219 15.859375 10.039062 16.039062 10.039062 C 16.21875 10.039062 16.390625 10.074219 16.554688 10.140625 C 16.722656 10.210938 16.867188 10.308594 16.996094 10.433594 C 17.121094 10.5625 17.21875 10.707031 17.289062 10.875 C 17.355469 11.039062 17.390625 11.210938 17.390625 11.390625 Z M 17.390625 11.390625 " fill-opacity="1" fill-rule="nonzero"/><path fill="#abd3ff" d="M 26.160156 11.390625 C 26.160156 11.570312 26.125 11.746094 26.058594 11.910156 C 25.988281 12.078125 25.890625 12.222656 25.765625 12.351562 C 25.636719 12.476562 25.492188 12.574219 25.328125 12.644531 C 25.160156 12.710938 24.988281 12.746094 24.808594 12.746094 C 24.628906 12.746094 24.457031 12.710938 24.292969 12.644531 C 24.125 12.574219 23.980469 12.476562 23.851562 12.351562 C 23.726562 12.222656 23.628906 12.078125 23.558594 11.910156 C 23.492188 11.746094 23.457031 11.574219 23.457031 11.394531 C 23.457031 11.214844 23.492188 11.039062 23.558594 10.875 C 23.628906 10.707031 23.726562 10.5625 23.851562 10.433594 C 23.980469 10.308594 24.125 10.210938 24.289062 10.140625 C 24.457031 10.074219 24.628906 10.039062 24.808594 10.039062 C 24.988281 10.039062 25.160156 10.074219 25.324219 10.140625 C 25.492188 10.210938 25.636719 10.308594 25.765625 10.433594 C 25.890625 10.5625 25.988281 10.707031 26.058594 10.875 C 26.125 11.039062 26.160156 11.210938 26.160156 11.390625 Z M 26.160156 11.390625 " fill-opacity="1" fill-rule="nonzero"/><g fill="#007aff" fill-opacity="1"><g transform="translate(33.880976, 24.057)"><g><path d="M 11.515625 0 L 11.515625 -6.28125 C 11.515625 -7.832031 11.40625 -8.609375 11.1875 -8.609375 C 10.707031 -8.609375 10.015625 -8.335938 9.109375 -7.796875 C 9.171875 -7.285156 9.203125 -6.78125 9.203125 -6.28125 L 9.203125 0 C 9.203125 0.0820312 9.195312 0.140625 9.1875 0.171875 C 9.113281 0.273438 8.847656 0.328125 8.390625 0.328125 C 7.929688 0.328125 7.457031 0.289062 6.96875 0.21875 C 6.476562 0.15625 6.234375 0.0820312 6.234375 0 L 6.234375 -7.046875 C 6.203125 -8.085938 6.085938 -8.609375 5.890625 -8.609375 C 5.398438 -8.609375 4.738281 -8.359375 3.90625 -7.859375 L 3.90625 0 C 3.90625 0.0820312 3.898438 0.140625 3.890625 0.171875 C 3.816406 0.273438 3.550781 0.328125 3.09375 0.328125 C 2.632812 0.328125 2.160156 0.289062 1.671875 0.21875 C 1.179688 0.15625 0.9375 0.0820312 0.9375 0 L 0.9375 -10.265625 C 0.9375 -10.484375 1.210938 -10.59375 1.765625 -10.59375 C 2.628906 -10.59375 3.125 -10.484375 3.25 -10.265625 C 3.25 -10.234375 3.253906 -10.21875 3.265625 -10.21875 L 3.65625 -9.4375 C 4.820312 -10.207031 5.6875 -10.59375 6.25 -10.59375 C 7.457031 -10.59375 8.273438 -10.148438 8.703125 -9.265625 C 9.972656 -10.148438 10.921875 -10.59375 11.546875 -10.59375 C 12.566406 -10.59375 13.3125 -10.273438 13.78125 -9.640625 C 14.257812 -9.003906 14.5 -7.882812 14.5 -6.28125 L 14.5 0 C 14.5 0.0820312 14.492188 0.140625 14.484375 0.171875 C 14.410156 0.273438 14.140625 0.328125 13.671875 0.328125 C 13.210938 0.328125 12.738281 0.289062 12.25 0.21875 C 11.757812 0.15625 11.515625 0.0820312 11.515625 0 Z M 11.515625 0 "/></g></g></g><g fill="#007aff" fill-opacity="1"><g transform="translate(49.281814, 24.057)"><g><path d="M 0.96875 0 L 0.96875 -10.265625 C 0.96875 -10.484375 1.21875 -10.59375 1.71875 -10.59375 C 2.21875 -10.59375 2.6875 -10.554688 3.125 -10.484375 C 3.5625 -10.421875 3.78125 -10.347656 3.78125 -10.265625 L 3.78125 0 C 3.78125 0.0820312 3.773438 0.140625 3.765625 0.171875 C 3.691406 0.273438 3.425781 0.328125 2.96875 0.328125 C 2.519531 0.328125 2.070312 0.289062 1.625 0.21875 C 1.1875 0.15625 0.96875 0.0820312 0.96875 0 Z M 2.25 -12.90625 C 1.257812 -12.90625 0.765625 -13.398438 0.765625 -14.390625 C 0.765625 -15.390625 1.257812 -15.890625 2.25 -15.890625 C 3.25 -15.890625 3.75 -15.390625 3.75 -14.390625 C 3.75 -13.398438 3.25 -12.90625 2.25 -12.90625 Z M 2.25 -12.90625 "/></g></g></g><g fill="#007aff" fill-opacity="1"><g transform="translate(53.974419, 24.057)"><g><path d="M 8.515625 -0.4375 L 8.515625 -9.828125 L 7.171875 -7.328125 L 5.09375 -7.328125 L 3.828125 -9.78125 L 3.828125 -0.453125 C 3.828125 -0.203125 3.820312 -0.0351562 3.8125 0.046875 C 3.75 0.234375 3.476562 0.328125 3 0.328125 C 1.625 0.328125 0.9375 0.0703125 0.9375 -0.4375 L 0.9375 -15.109375 C 0.9375 -15.628906 1.410156 -15.890625 2.359375 -15.890625 C 3.304688 -15.890625 3.878906 -15.632812 4.078125 -15.125 L 6.171875 -9.78125 L 8.359375 -15.140625 C 8.460938 -15.441406 8.59375 -15.640625 8.75 -15.734375 C 8.914062 -15.835938 9.195312 -15.890625 9.59375 -15.890625 C 10.59375 -15.890625 11.097656 -15.617188 11.109375 -15.078125 L 11.4375 -8.921875 L 11.4375 -0.578125 C 11.4375 -0.160156 11.398438 0.09375 11.328125 0.1875 C 11.253906 0.28125 11.003906 0.328125 10.578125 0.328125 C 10.160156 0.328125 9.820312 0.3125 9.5625 0.28125 C 9.300781 0.257812 9.0625 0.1875 8.84375 0.0625 C 8.625 -0.0507812 8.515625 -0.21875 8.515625 -0.4375 Z M 8.515625 -0.4375 "/></g></g></g><g fill="#007aff" fill-opacity="1"><g transform="translate(66.315766, 24.057)"><g><path d="M 4.703125 0.328125 C 3.222656 0.328125 2.195312 -0.0664062 1.625 -0.859375 C 1.050781 -1.660156 0.765625 -3.097656 0.765625 -5.171875 C 0.765625 -6.660156 0.894531 -7.796875 1.15625 -8.578125 C 1.414062 -9.359375 1.8125 -9.890625 2.34375 -10.171875 C 2.875 -10.453125 3.65625 -10.59375 4.6875 -10.59375 C 5.726562 -10.59375 6.515625 -10.445312 7.046875 -10.15625 C 7.578125 -9.863281 7.960938 -9.320312 8.203125 -8.53125 C 8.453125 -7.75 8.578125 -6.632812 8.578125 -5.1875 C 8.578125 -5.101562 8.578125 -5.019531 8.578125 -4.9375 C 8.578125 -4.851562 8.414062 -4.773438 8.09375 -4.703125 C 7.769531 -4.640625 7.382812 -4.609375 6.9375 -4.609375 L 3.75 -4.609375 C 3.769531 -2.992188 3.882812 -2.078125 4.09375 -1.859375 C 4.21875 -1.753906 4.421875 -1.703125 4.703125 -1.703125 C 6.503906 -1.703125 7.738281 -1.789062 8.40625 -1.96875 C 8.425781 -1.976562 8.445312 -1.984375 8.46875 -1.984375 C 8.5625 -2.015625 8.640625 -1.957031 8.703125 -1.8125 C 8.765625 -1.675781 8.796875 -1.351562 8.796875 -0.84375 C 8.796875 -0.332031 8.6875 -0.0507812 8.46875 0 C 7.894531 0.21875 6.640625 0.328125 4.703125 0.328125 Z M 3.75 -7.875 L 3.75 -6.265625 L 5.828125 -6.265625 C 5.773438 -7.867188 5.617188 -8.671875 5.359375 -8.671875 C 4.890625 -8.671875 4.503906 -8.597656 4.203125 -8.453125 C 3.898438 -8.316406 3.75 -8.125 3.75 -7.875 Z M 3.75 -7.875 "/></g></g></g><g fill="#007aff" fill-opacity="1"><g transform="translate(75.700974, 24.057)"><g><path d="M 3.3125 0.328125 C 2.289062 0.328125 1.539062 -0.0859375 1.0625 -0.921875 C 0.59375 -1.753906 0.359375 -3.203125 0.359375 -5.265625 C 0.359375 -7.335938 0.65625 -8.742188 1.25 -9.484375 C 1.851562 -10.222656 2.988281 -10.59375 4.65625 -10.59375 L 5.640625 -10.59375 L 5.640625 -15.5625 C 5.640625 -15.78125 5.878906 -15.890625 6.359375 -15.890625 C 6.847656 -15.890625 7.25 -15.859375 7.5625 -15.796875 C 7.882812 -15.734375 8.050781 -15.65625 8.0625 -15.5625 L 8.421875 -8.953125 L 8.421875 0 C 8.421875 0.0820312 8.414062 0.140625 8.40625 0.171875 C 8.332031 0.273438 8.070312 0.328125 7.625 0.328125 C 7.1875 0.328125 6.8125 0.296875 6.5 0.234375 C 6.195312 0.171875 6.046875 0.09375 6.046875 0 L 5.640625 -0.640625 C 5.242188 -0.378906 4.960938 -0.191406 4.796875 -0.078125 C 4.335938 0.191406 3.84375 0.328125 3.3125 0.328125 Z M 4.65625 -8.609375 C 4.144531 -8.609375 3.796875 -8.394531 3.609375 -7.96875 C 3.421875 -7.550781 3.328125 -6.84375 3.328125 -5.84375 C 3.328125 -4.84375 3.328125 -4.179688 3.328125 -3.859375 C 3.335938 -3.546875 3.351562 -3.179688 3.375 -2.765625 C 3.394531 -2.023438 3.488281 -1.65625 3.65625 -1.65625 C 4.15625 -1.65625 4.816406 -1.90625 5.640625 -2.40625 L 5.640625 -8.609375 Z M 4.65625 -8.609375 "/></g></g></g><g fill="#007aff" fill-opacity="1"><g transform="translate(85.024174, 24.057)"><g><path d="M 0.96875 0 L 0.96875 -10.265625 C 0.96875 -10.484375 1.21875 -10.59375 1.71875 -10.59375 C 2.21875 -10.59375 2.6875 -10.554688 3.125 -10.484375 C 3.5625 -10.421875 3.78125 -10.347656 3.78125 -10.265625 L 3.78125 0 C 3.78125 0.0820312 3.773438 0.140625 3.765625 0.171875 C 3.691406 0.273438 3.425781 0.328125 2.96875 0.328125 C 2.519531 0.328125 2.070312 0.289062 1.625 0.21875 C 1.1875 0.15625 0.96875 0.0820312 0.96875 0 Z M 2.25 -12.90625 C 1.257812 -12.90625 0.765625 -13.398438 0.765625 -14.390625 C 0.765625 -15.390625 1.257812 -15.890625 2.25 -15.890625 C 3.25 -15.890625 3.75 -15.390625 3.75 -14.390625 C 3.75 -13.398438 3.25 -12.90625 2.25 -12.90625 Z M 2.25 -12.90625 "/></g></g></g><g fill="#007aff" fill-opacity="1"><g transform="translate(89.716778, 24.057)"><g><path d="M 6.6875 -7.8125 L 6.5625 -7.859375 L 5.765625 -8.25 C 5.171875 -8.488281 4.660156 -8.609375 4.234375 -8.609375 C 3.617188 -8.578125 3.3125 -8.28125 3.3125 -7.71875 C 3.3125 -7.5 3.429688 -7.316406 3.671875 -7.171875 C 3.910156 -7.035156 4.101562 -6.929688 4.25 -6.859375 C 4.40625 -6.785156 4.628906 -6.675781 4.921875 -6.53125 C 5.953125 -6.09375 6.71875 -5.601562 7.21875 -5.0625 C 7.726562 -4.53125 7.984375 -4 7.984375 -3.46875 C 7.984375 -2.332031 7.679688 -1.414062 7.078125 -0.71875 C 6.472656 -0.0195312 5.648438 0.328125 4.609375 0.328125 C 3.566406 0.328125 2.75 0.191406 2.15625 -0.078125 C 1.5625 -0.359375 1.0625 -0.753906 0.65625 -1.265625 C 0.601562 -1.285156 0.578125 -1.320312 0.578125 -1.375 C 0.578125 -1.4375 0.585938 -1.507812 0.609375 -1.59375 C 0.628906 -1.675781 0.789062 -1.898438 1.09375 -2.265625 C 1.394531 -2.628906 1.640625 -2.8125 1.828125 -2.8125 C 1.878906 -2.8125 1.929688 -2.785156 1.984375 -2.734375 C 2.710938 -2.148438 3.421875 -1.859375 4.109375 -1.859375 C 4.503906 -1.859375 4.796875 -1.96875 4.984375 -2.1875 C 5.179688 -2.414062 5.28125 -2.660156 5.28125 -2.921875 C 5.28125 -3.179688 5.164062 -3.394531 4.9375 -3.5625 C 4.71875 -3.726562 4.445312 -3.890625 4.125 -4.046875 C 3.800781 -4.203125 3.625 -4.285156 3.59375 -4.296875 C 3.570312 -4.316406 3.535156 -4.335938 3.484375 -4.359375 C 3.429688 -4.390625 3.382812 -4.410156 3.34375 -4.421875 C 2.644531 -4.765625 2.050781 -5.195312 1.5625 -5.71875 C 1.070312 -6.238281 0.828125 -6.816406 0.828125 -7.453125 C 0.828125 -8.554688 1.113281 -9.351562 1.6875 -9.84375 C 2.257812 -10.34375 3.164062 -10.59375 4.40625 -10.59375 C 4.875 -10.59375 5.320312 -10.535156 5.75 -10.421875 C 6.332031 -10.273438 6.75 -10.097656 7 -9.890625 L 7.015625 -9.890625 C 7.117188 -9.816406 7.179688 -9.734375 7.203125 -9.640625 C 7.222656 -9.546875 7.210938 -9.335938 7.171875 -9.015625 C 7.035156 -8.210938 6.875 -7.8125 6.6875 -7.8125 Z M 6.6875 -7.8125 "/></g></g></g><g fill="#007aff" fill-opacity="1"><g transform="translate(98.29577, 24.057)"><g><path d="M 5.671875 -0.640625 C 4.953125 0.00390625 4.3125 0.328125 3.75 0.328125 C 3.195312 0.328125 2.742188 0.289062 2.390625 0.21875 C 2.046875 0.144531 1.738281 -0.015625 1.46875 -0.265625 C 1.195312 -0.523438 1.003906 -0.894531 0.890625 -1.375 C 0.773438 -1.863281 0.71875 -2.507812 0.71875 -3.3125 C 0.71875 -4.425781 1.265625 -5.191406 2.359375 -5.609375 L 5.3125 -6.375 C 5.300781 -7.269531 5.210938 -7.847656 5.046875 -8.109375 C 4.878906 -8.367188 4.519531 -8.5 3.96875 -8.5 C 3.414062 -8.5 2.941406 -8.410156 2.546875 -8.234375 L 1.828125 -7.9375 L 1.796875 -7.9375 C 1.671875 -7.875 1.5625 -7.929688 1.46875 -8.109375 C 1.21875 -8.628906 1.09375 -9.035156 1.09375 -9.328125 C 1.09375 -9.628906 1.113281 -9.796875 1.15625 -9.828125 C 1.207031 -9.867188 1.234375 -9.894531 1.234375 -9.90625 C 1.929688 -10.363281 2.828125 -10.59375 3.921875 -10.59375 C 5.015625 -10.59375 5.859375 -10.445312 6.453125 -10.15625 C 7.046875 -9.863281 7.476562 -9.332031 7.75 -8.5625 C 8.019531 -7.800781 8.15625 -6.671875 8.15625 -5.171875 L 8.109375 0 C 8.109375 0.0820312 8.09375 0.140625 8.0625 0.171875 C 8.007812 0.273438 7.75 0.328125 7.28125 0.328125 C 6.425781 0.328125 6 0.21875 6 0 Z M 3.015625 -3.265625 C 3.015625 -2.273438 3.304688 -1.753906 3.890625 -1.703125 C 4.285156 -1.703125 4.578125 -1.769531 4.765625 -1.90625 C 5.148438 -2.164062 5.34375 -3.144531 5.34375 -4.84375 C 4.625 -4.75 4.054688 -4.550781 3.640625 -4.25 C 3.222656 -3.957031 3.015625 -3.628906 3.015625 -3.265625 Z M 3.015625 -3.265625 "/></g></g></g><g fill="#007aff" fill-opacity="1"><g transform="translate(107.288202, 24.057)"><g><path d="M 6.25 -10.59375 C 7.269531 -10.59375 8.015625 -10.273438 8.484375 -9.640625 C 8.960938 -9.003906 9.203125 -7.882812 9.203125 -6.28125 L 9.203125 0 C 9.203125 0.0820312 9.195312 0.140625 9.1875 0.171875 C 9.113281 0.273438 8.847656 0.328125 8.390625 0.328125 C 7.929688 0.328125 7.457031 0.289062 6.96875 0.21875 C 6.488281 0.15625 6.25 0.0820312 6.25 0 L 6.234375 -6.28125 C 6.234375 -7.832031 6.117188 -8.609375 5.890625 -8.609375 C 5.398438 -8.609375 4.738281 -8.359375 3.90625 -7.859375 L 3.90625 0 C 3.90625 0.0820312 3.898438 0.140625 3.890625 0.171875 C 3.816406 0.273438 3.550781 0.328125 3.09375 0.328125 C 2.632812 0.328125 2.160156 0.289062 1.671875 0.21875 C 1.179688 0.15625 0.9375 0.0820312 0.9375 0 L 0.9375 -10.265625 C 0.9375 -10.484375 1.210938 -10.59375 1.765625 -10.59375 C 2.628906 -10.59375 3.125 -10.484375 3.25 -10.265625 C 3.25 -10.234375 3.253906 -10.21875 3.265625 -10.21875 L 3.65625 -9.4375 C 4.820312 -10.207031 5.6875 -10.59375 6.25 -10.59375 Z M 6.25 -10.59375 "/></g></g></g></svg>