<svg xmlns="http://www.w3.org/2000/svg" xmlns:xlink="http://www.w3.org/1999/xlink" width="158" zoomAndPan="magnify" viewBox="0 0 118.5 34.499999" height="46" preserveAspectRatio="xMidYMid meet" version="1.0"><defs><g/><clipPath id="296ce3531b"><path d="M 1.066406 5 L 27 5 L 27 34.007812 L 1.066406 34.007812 Z M 1.066406 5 " clip-rule="nonzero"/></clipPath><clipPath id="b5b76dda1e"><path d="M 8 0.414062 L 33 0.414062 L 33 29 L 8 29 Z M 8 0.414062 " clip-rule="nonzero"/></clipPath></defs><g clip-path="url(#296ce3531b)"><path fill="#adfdd0" d="M 8.195312 34.328125 C 7.679688 34.328125 7.179688 34.238281 6.695312 34.054688 C 6.210938 33.875 5.777344 33.617188 5.386719 33.277344 C 4.996094 32.941406 4.675781 32.542969 4.429688 32.09375 C 4.179688 31.640625 4.019531 31.15625 3.945312 30.644531 L 1.179688 11.390625 C 1.140625 11.113281 1.128906 10.832031 1.140625 10.550781 C 1.15625 10.269531 1.199219 9.992188 1.269531 9.71875 C 1.335938 9.445312 1.433594 9.183594 1.554688 8.929688 C 1.675781 8.675781 1.820312 8.433594 1.988281 8.210938 C 2.15625 7.984375 2.347656 7.777344 2.558594 7.589844 C 2.765625 7.402344 2.992188 7.234375 3.234375 7.09375 C 3.476562 6.949219 3.730469 6.832031 3.996094 6.738281 C 4.261719 6.644531 4.535156 6.578125 4.8125 6.539062 L 10.042969 5.789062 L 10.523438 9.035156 L 5.292969 9.8125 C 5.164062 9.828125 5.039062 9.871094 4.925781 9.9375 C 4.8125 10.003906 4.71875 10.089844 4.636719 10.195312 C 4.558594 10.300781 4.5 10.414062 4.46875 10.542969 C 4.4375 10.671875 4.429688 10.800781 4.449219 10.929688 L 7.210938 30.167969 C 7.25 30.4375 7.378906 30.65625 7.597656 30.820312 C 7.816406 30.984375 8.058594 31.050781 8.332031 31.011719 L 22.839844 28.929688 C 23.0625 28.902344 23.238281 28.796875 23.375 28.617188 C 23.507812 28.4375 23.558594 28.238281 23.523438 28.015625 L 23.34375 26.828125 L 26.609375 26.347656 L 26.792969 27.535156 C 26.828125 27.804688 26.839844 28.070312 26.820312 28.34375 C 26.804688 28.613281 26.765625 28.878906 26.695312 29.140625 C 26.628906 29.398438 26.535156 29.652344 26.417969 29.894531 C 26.300781 30.140625 26.160156 30.371094 26 30.585938 C 25.835938 30.800781 25.65625 31 25.457031 31.179688 C 25.253906 31.363281 25.039062 31.519531 24.808594 31.660156 C 24.574219 31.796875 24.332031 31.914062 24.078125 32.003906 C 23.824219 32.09375 23.5625 32.160156 23.296875 32.199219 L 8.789062 34.304688 C 8.582031 34.304688 8.378906 34.328125 8.195312 34.328125 Z M 8.195312 34.328125 " fill-opacity="1" fill-rule="nonzero"/></g><g clip-path="url(#b5b76dda1e)"><path fill="#57d38c" d="M 27.75 28.222656 L 13.21875 28.222656 C 12.9375 28.222656 12.65625 28.195312 12.378906 28.140625 C 12.105469 28.085938 11.835938 28.003906 11.574219 27.894531 C 11.3125 27.789062 11.066406 27.65625 10.832031 27.5 C 10.597656 27.34375 10.378906 27.164062 10.179688 26.964844 C 9.980469 26.765625 9.804688 26.546875 9.648438 26.3125 C 9.492188 26.078125 9.359375 25.828125 9.25 25.570312 C 9.144531 25.308594 9.0625 25.039062 9.007812 24.761719 C 8.953125 24.484375 8.925781 24.207031 8.925781 23.921875 L 8.925781 4.734375 C 8.925781 4.453125 8.953125 4.171875 9.007812 3.894531 C 9.0625 3.617188 9.144531 3.351562 9.25 3.089844 C 9.359375 2.828125 9.492188 2.578125 9.648438 2.34375 C 9.804688 2.109375 9.984375 1.894531 10.183594 1.691406 C 10.382812 1.492188 10.597656 1.316406 10.832031 1.160156 C 11.066406 1 11.316406 0.871094 11.578125 0.761719 C 11.835938 0.652344 12.105469 0.570312 12.382812 0.515625 C 12.660156 0.460938 12.9375 0.433594 13.222656 0.433594 L 27.753906 0.433594 C 28.035156 0.433594 28.316406 0.460938 28.589844 0.519531 C 28.867188 0.574219 29.136719 0.652344 29.398438 0.761719 C 29.65625 0.871094 29.90625 1.003906 30.140625 1.160156 C 30.375 1.316406 30.589844 1.496094 30.789062 1.695312 C 30.988281 1.894531 31.167969 2.109375 31.324219 2.347656 C 31.480469 2.582031 31.613281 2.828125 31.71875 3.089844 C 31.828125 3.351562 31.910156 3.621094 31.964844 3.894531 C 32.019531 4.171875 32.046875 4.453125 32.046875 4.734375 L 32.046875 23.921875 C 32.046875 24.207031 32.019531 24.484375 31.964844 24.761719 C 31.910156 25.039062 31.828125 25.308594 31.71875 25.570312 C 31.613281 25.832031 31.480469 26.078125 31.324219 26.3125 C 31.167969 26.546875 30.988281 26.765625 30.789062 26.964844 C 30.589844 27.164062 30.371094 27.34375 30.136719 27.5 C 29.902344 27.65625 29.65625 27.789062 29.394531 27.898438 C 29.132812 28.003906 28.867188 28.085938 28.589844 28.140625 C 28.3125 28.195312 28.03125 28.222656 27.75 28.222656 Z M 13.222656 3.75 C 13.089844 3.75 12.964844 3.773438 12.84375 3.824219 C 12.722656 3.875 12.617188 3.945312 12.523438 4.039062 C 12.433594 4.128906 12.359375 4.234375 12.3125 4.355469 C 12.261719 4.476562 12.238281 4.605469 12.238281 4.734375 L 12.238281 23.921875 C 12.238281 24.054688 12.261719 24.179688 12.3125 24.300781 C 12.359375 24.421875 12.433594 24.527344 12.523438 24.621094 C 12.617188 24.710938 12.722656 24.785156 12.84375 24.832031 C 12.964844 24.882812 13.089844 24.90625 13.222656 24.90625 L 27.753906 24.90625 C 27.882812 24.90625 28.007812 24.882812 28.128906 24.832031 C 28.25 24.785156 28.359375 24.710938 28.449219 24.621094 C 28.542969 24.527344 28.613281 24.421875 28.664062 24.300781 C 28.710938 24.179688 28.734375 24.054688 28.734375 23.921875 L 28.734375 4.734375 C 28.734375 4.605469 28.710938 4.480469 28.664062 4.359375 C 28.613281 4.238281 28.542969 4.128906 28.449219 4.039062 C 28.359375 3.945312 28.25 3.875 28.128906 3.824219 C 28.007812 3.777344 27.882812 3.75 27.753906 3.753906 L 13.222656 3.753906 Z M 13.222656 3.75 " fill-opacity="1" fill-rule="nonzero"/></g><path fill="#adfdd0" d="M 24.117188 14.980469 C 24.117188 15.445312 24.03125 15.890625 23.851562 16.320312 C 23.675781 16.75 23.421875 17.125 23.09375 17.453125 C 22.765625 17.78125 22.390625 18.035156 21.960938 18.214844 C 21.53125 18.390625 21.085938 18.480469 20.625 18.480469 C 20.160156 18.480469 19.714844 18.390625 19.285156 18.214844 C 18.855469 18.035156 18.480469 17.78125 18.152344 17.453125 C 17.824219 17.125 17.570312 16.75 17.394531 16.320312 C 17.214844 15.890625 17.128906 15.445312 17.128906 14.980469 Z M 24.117188 14.980469 " fill-opacity="1" fill-rule="nonzero"/><path fill="#adfdd0" d="M 17.515625 11.6875 C 17.515625 11.863281 17.480469 12.03125 17.414062 12.195312 C 17.347656 12.355469 17.253906 12.5 17.128906 12.625 C 17.003906 12.75 16.859375 12.84375 16.699219 12.910156 C 16.535156 12.980469 16.367188 13.011719 16.191406 13.011719 C 16.015625 13.011719 15.847656 12.980469 15.683594 12.914062 C 15.523438 12.84375 15.378906 12.75 15.253906 12.625 C 15.128906 12.5 15.035156 12.355469 14.96875 12.195312 C 14.898438 12.03125 14.867188 11.863281 14.867188 11.6875 C 14.867188 11.511719 14.898438 11.34375 14.96875 11.179688 C 15.035156 11.015625 15.128906 10.875 15.253906 10.75 C 15.378906 10.625 15.519531 10.53125 15.683594 10.460938 C 15.847656 10.394531 16.015625 10.359375 16.191406 10.359375 C 16.367188 10.359375 16.535156 10.394531 16.695312 10.460938 C 16.859375 10.53125 17.003906 10.625 17.125 10.75 C 17.25 10.875 17.347656 11.015625 17.414062 11.179688 C 17.480469 11.34375 17.515625 11.511719 17.515625 11.6875 Z M 17.515625 11.6875 " fill-opacity="1" fill-rule="nonzero"/><path fill="#adfdd0" d="M 26.105469 11.6875 C 26.105469 11.863281 26.074219 12.03125 26.003906 12.195312 C 25.9375 12.355469 25.84375 12.5 25.71875 12.625 C 25.59375 12.75 25.449219 12.84375 25.289062 12.910156 C 25.125 12.980469 24.957031 13.011719 24.78125 13.011719 C 24.605469 13.011719 24.4375 12.980469 24.273438 12.914062 C 24.113281 12.84375 23.96875 12.75 23.84375 12.625 C 23.722656 12.5 23.625 12.355469 23.558594 12.195312 C 23.492188 12.03125 23.457031 11.863281 23.457031 11.6875 C 23.457031 11.511719 23.488281 11.34375 23.558594 11.179688 C 23.625 11.015625 23.71875 10.875 23.84375 10.75 C 23.96875 10.625 24.113281 10.53125 24.273438 10.460938 C 24.4375 10.394531 24.605469 10.359375 24.78125 10.359375 C 24.957031 10.359375 25.125 10.394531 25.289062 10.460938 C 25.449219 10.53125 25.59375 10.625 25.71875 10.75 C 25.839844 10.875 25.9375 11.015625 26.003906 11.179688 C 26.070312 11.34375 26.105469 11.511719 26.105469 11.6875 Z M 26.105469 11.6875 " fill-opacity="1" fill-rule="nonzero"/><g fill="#57d38c" fill-opacity="1"><g transform="translate(33.708862, 24.352714)"><g><path d="M 11.515625 0 L 11.515625 -6.28125 C 11.515625 -7.832031 11.40625 -8.609375 11.1875 -8.609375 C 10.707031 -8.609375 10.015625 -8.335938 9.109375 -7.796875 C 9.171875 -7.285156 9.203125 -6.78125 9.203125 -6.28125 L 9.203125 0 C 9.203125 0.0820312 9.195312 0.140625 9.1875 0.171875 C 9.113281 0.273438 8.847656 0.328125 8.390625 0.328125 C 7.929688 0.328125 7.457031 0.289062 6.96875 0.21875 C 6.476562 0.15625 6.234375 0.0820312 6.234375 0 L 6.234375 -7.046875 C 6.203125 -8.085938 6.085938 -8.609375 5.890625 -8.609375 C 5.398438 -8.609375 4.738281 -8.359375 3.90625 -7.859375 L 3.90625 0 C 3.90625 0.0820312 3.898438 0.140625 3.890625 0.171875 C 3.816406 0.273438 3.550781 0.328125 3.09375 0.328125 C 2.632812 0.328125 2.160156 0.289062 1.671875 0.21875 C 1.179688 0.15625 0.9375 0.0820312 0.9375 0 L 0.9375 -10.265625 C 0.9375 -10.484375 1.210938 -10.59375 1.765625 -10.59375 C 2.628906 -10.59375 3.125 -10.484375 3.25 -10.265625 C 3.25 -10.234375 3.253906 -10.21875 3.265625 -10.21875 L 3.65625 -9.4375 C 4.820312 -10.207031 5.6875 -10.59375 6.25 -10.59375 C 7.457031 -10.59375 8.273438 -10.148438 8.703125 -9.265625 C 9.972656 -10.148438 10.921875 -10.59375 11.546875 -10.59375 C 12.566406 -10.59375 13.3125 -10.273438 13.78125 -9.640625 C 14.257812 -9.003906 14.5 -7.882812 14.5 -6.28125 L 14.5 0 C 14.5 0.0820312 14.492188 0.140625 14.484375 0.171875 C 14.410156 0.273438 14.140625 0.328125 13.671875 0.328125 C 13.210938 0.328125 12.738281 0.289062 12.25 0.21875 C 11.757812 0.15625 11.515625 0.0820312 11.515625 0 Z M 11.515625 0 "/></g></g></g><g fill="#57d38c" fill-opacity="1"><g transform="translate(49.109699, 24.352714)"><g><path d="M 0.96875 0 L 0.96875 -10.265625 C 0.96875 -10.484375 1.21875 -10.59375 1.71875 -10.59375 C 2.21875 -10.59375 2.6875 -10.554688 3.125 -10.484375 C 3.5625 -10.421875 3.78125 -10.347656 3.78125 -10.265625 L 3.78125 0 C 3.78125 0.0820312 3.773438 0.140625 3.765625 0.171875 C 3.691406 0.273438 3.425781 0.328125 2.96875 0.328125 C 2.519531 0.328125 2.070312 0.289062 1.625 0.21875 C 1.1875 0.15625 0.96875 0.0820312 0.96875 0 Z M 2.25 -12.90625 C 1.257812 -12.90625 0.765625 -13.398438 0.765625 -14.390625 C 0.765625 -15.390625 1.257812 -15.890625 2.25 -15.890625 C 3.25 -15.890625 3.75 -15.390625 3.75 -14.390625 C 3.75 -13.398438 3.25 -12.90625 2.25 -12.90625 Z M 2.25 -12.90625 "/></g></g></g><g fill="#57d38c" fill-opacity="1"><g transform="translate(53.802304, 24.352714)"><g><path d="M 8.515625 -0.4375 L 8.515625 -9.828125 L 7.171875 -7.328125 L 5.09375 -7.328125 L 3.828125 -9.78125 L 3.828125 -0.453125 C 3.828125 -0.203125 3.820312 -0.0351562 3.8125 0.046875 C 3.75 0.234375 3.476562 0.328125 3 0.328125 C 1.625 0.328125 0.9375 0.0703125 0.9375 -0.4375 L 0.9375 -15.109375 C 0.9375 -15.628906 1.410156 -15.890625 2.359375 -15.890625 C 3.304688 -15.890625 3.878906 -15.632812 4.078125 -15.125 L 6.171875 -9.78125 L 8.359375 -15.140625 C 8.460938 -15.441406 8.59375 -15.640625 8.75 -15.734375 C 8.914062 -15.835938 9.195312 -15.890625 9.59375 -15.890625 C 10.59375 -15.890625 11.097656 -15.617188 11.109375 -15.078125 L 11.4375 -8.921875 L 11.4375 -0.578125 C 11.4375 -0.160156 11.398438 0.09375 11.328125 0.1875 C 11.253906 0.28125 11.003906 0.328125 10.578125 0.328125 C 10.160156 0.328125 9.820312 0.3125 9.5625 0.28125 C 9.300781 0.257812 9.0625 0.1875 8.84375 0.0625 C 8.625 -0.0507812 8.515625 -0.21875 8.515625 -0.4375 Z M 8.515625 -0.4375 "/></g></g></g><g fill="#57d38c" fill-opacity="1"><g transform="translate(66.143651, 24.352714)"><g><path d="M 4.703125 0.328125 C 3.222656 0.328125 2.195312 -0.0664062 1.625 -0.859375 C 1.050781 -1.660156 0.765625 -3.097656 0.765625 -5.171875 C 0.765625 -6.660156 0.894531 -7.796875 1.15625 -8.578125 C 1.414062 -9.359375 1.8125 -9.890625 2.34375 -10.171875 C 2.875 -10.453125 3.65625 -10.59375 4.6875 -10.59375 C 5.726562 -10.59375 6.515625 -10.445312 7.046875 -10.15625 C 7.578125 -9.863281 7.960938 -9.320312 8.203125 -8.53125 C 8.453125 -7.75 8.578125 -6.632812 8.578125 -5.1875 C 8.578125 -5.101562 8.578125 -5.019531 8.578125 -4.9375 C 8.578125 -4.851562 8.414062 -4.773438 8.09375 -4.703125 C 7.769531 -4.640625 7.382812 -4.609375 6.9375 -4.609375 L 3.75 -4.609375 C 3.769531 -2.992188 3.882812 -2.078125 4.09375 -1.859375 C 4.21875 -1.753906 4.421875 -1.703125 4.703125 -1.703125 C 6.503906 -1.703125 7.738281 -1.789062 8.40625 -1.96875 C 8.425781 -1.976562 8.445312 -1.984375 8.46875 -1.984375 C 8.5625 -2.015625 8.640625 -1.957031 8.703125 -1.8125 C 8.765625 -1.675781 8.796875 -1.351562 8.796875 -0.84375 C 8.796875 -0.332031 8.6875 -0.0507812 8.46875 0 C 7.894531 0.21875 6.640625 0.328125 4.703125 0.328125 Z M 3.75 -7.875 L 3.75 -6.265625 L 5.828125 -6.265625 C 5.773438 -7.867188 5.617188 -8.671875 5.359375 -8.671875 C 4.890625 -8.671875 4.503906 -8.597656 4.203125 -8.453125 C 3.898438 -8.316406 3.75 -8.125 3.75 -7.875 Z M 3.75 -7.875 "/></g></g></g><g fill="#57d38c" fill-opacity="1"><g transform="translate(75.528859, 24.352714)"><g><path d="M 3.3125 0.328125 C 2.289062 0.328125 1.539062 -0.0859375 1.0625 -0.921875 C 0.59375 -1.753906 0.359375 -3.203125 0.359375 -5.265625 C 0.359375 -7.335938 0.65625 -8.742188 1.25 -9.484375 C 1.851562 -10.222656 2.988281 -10.59375 4.65625 -10.59375 L 5.640625 -10.59375 L 5.640625 -15.5625 C 5.640625 -15.78125 5.878906 -15.890625 6.359375 -15.890625 C 6.847656 -15.890625 7.25 -15.859375 7.5625 -15.796875 C 7.882812 -15.734375 8.050781 -15.65625 8.0625 -15.5625 L 8.421875 -8.953125 L 8.421875 0 C 8.421875 0.0820312 8.414062 0.140625 8.40625 0.171875 C 8.332031 0.273438 8.070312 0.328125 7.625 0.328125 C 7.1875 0.328125 6.8125 0.296875 6.5 0.234375 C 6.195312 0.171875 6.046875 0.09375 6.046875 0 L 5.640625 -0.640625 C 5.242188 -0.378906 4.960938 -0.191406 4.796875 -0.078125 C 4.335938 0.191406 3.84375 0.328125 3.3125 0.328125 Z M 4.65625 -8.609375 C 4.144531 -8.609375 3.796875 -8.394531 3.609375 -7.96875 C 3.421875 -7.550781 3.328125 -6.84375 3.328125 -5.84375 C 3.328125 -4.84375 3.328125 -4.179688 3.328125 -3.859375 C 3.335938 -3.546875 3.351562 -3.179688 3.375 -2.765625 C 3.394531 -2.023438 3.488281 -1.65625 3.65625 -1.65625 C 4.15625 -1.65625 4.816406 -1.90625 5.640625 -2.40625 L 5.640625 -8.609375 Z M 4.65625 -8.609375 "/></g></g></g><g fill="#57d38c" fill-opacity="1"><g transform="translate(84.852059, 24.352714)"><g><path d="M 0.96875 0 L 0.96875 -10.265625 C 0.96875 -10.484375 1.21875 -10.59375 1.71875 -10.59375 C 2.21875 -10.59375 2.6875 -10.554688 3.125 -10.484375 C 3.5625 -10.421875 3.78125 -10.347656 3.78125 -10.265625 L 3.78125 0 C 3.78125 0.0820312 3.773438 0.140625 3.765625 0.171875 C 3.691406 0.273438 3.425781 0.328125 2.96875 0.328125 C 2.519531 0.328125 2.070312 0.289062 1.625 0.21875 C 1.1875 0.15625 0.96875 0.0820312 0.96875 0 Z M 2.25 -12.90625 C 1.257812 -12.90625 0.765625 -13.398438 0.765625 -14.390625 C 0.765625 -15.390625 1.257812 -15.890625 2.25 -15.890625 C 3.25 -15.890625 3.75 -15.390625 3.75 -14.390625 C 3.75 -13.398438 3.25 -12.90625 2.25 -12.90625 Z M 2.25 -12.90625 "/></g></g></g><g fill="#57d38c" fill-opacity="1"><g transform="translate(89.544663, 24.352714)"><g><path d="M 6.6875 -7.8125 L 6.5625 -7.859375 L 5.765625 -8.25 C 5.171875 -8.488281 4.660156 -8.609375 4.234375 -8.609375 C 3.617188 -8.578125 3.3125 -8.28125 3.3125 -7.71875 C 3.3125 -7.5 3.429688 -7.316406 3.671875 -7.171875 C 3.910156 -7.035156 4.101562 -6.929688 4.25 -6.859375 C 4.40625 -6.785156 4.628906 -6.675781 4.921875 -6.53125 C 5.953125 -6.09375 6.71875 -5.601562 7.21875 -5.0625 C 7.726562 -4.53125 7.984375 -4 7.984375 -3.46875 C 7.984375 -2.332031 7.679688 -1.414062 7.078125 -0.71875 C 6.472656 -0.0195312 5.648438 0.328125 4.609375 0.328125 C 3.566406 0.328125 2.75 0.191406 2.15625 -0.078125 C 1.5625 -0.359375 1.0625 -0.753906 0.65625 -1.265625 C 0.601562 -1.285156 0.578125 -1.320312 0.578125 -1.375 C 0.578125 -1.4375 0.585938 -1.507812 0.609375 -1.59375 C 0.628906 -1.675781 0.789062 -1.898438 1.09375 -2.265625 C 1.394531 -2.628906 1.640625 -2.8125 1.828125 -2.8125 C 1.878906 -2.8125 1.929688 -2.785156 1.984375 -2.734375 C 2.710938 -2.148438 3.421875 -1.859375 4.109375 -1.859375 C 4.503906 -1.859375 4.796875 -1.96875 4.984375 -2.1875 C 5.179688 -2.414062 5.28125 -2.660156 5.28125 -2.921875 C 5.28125 -3.179688 5.164062 -3.394531 4.9375 -3.5625 C 4.71875 -3.726562 4.445312 -3.890625 4.125 -4.046875 C 3.800781 -4.203125 3.625 -4.285156 3.59375 -4.296875 C 3.570312 -4.316406 3.535156 -4.335938 3.484375 -4.359375 C 3.429688 -4.390625 3.382812 -4.410156 3.34375 -4.421875 C 2.644531 -4.765625 2.050781 -5.195312 1.5625 -5.71875 C 1.070312 -6.238281 0.828125 -6.816406 0.828125 -7.453125 C 0.828125 -8.554688 1.113281 -9.351562 1.6875 -9.84375 C 2.257812 -10.34375 3.164062 -10.59375 4.40625 -10.59375 C 4.875 -10.59375 5.320312 -10.535156 5.75 -10.421875 C 6.332031 -10.273438 6.75 -10.097656 7 -9.890625 L 7.015625 -9.890625 C 7.117188 -9.816406 7.179688 -9.734375 7.203125 -9.640625 C 7.222656 -9.546875 7.210938 -9.335938 7.171875 -9.015625 C 7.035156 -8.210938 6.875 -7.8125 6.6875 -7.8125 Z M 6.6875 -7.8125 "/></g></g></g><g fill="#57d38c" fill-opacity="1"><g transform="translate(98.123655, 24.352714)"><g><path d="M 5.671875 -0.640625 C 4.953125 0.00390625 4.3125 0.328125 3.75 0.328125 C 3.195312 0.328125 2.742188 0.289062 2.390625 0.21875 C 2.046875 0.144531 1.738281 -0.015625 1.46875 -0.265625 C 1.195312 -0.523438 1.003906 -0.894531 0.890625 -1.375 C 0.773438 -1.863281 0.71875 -2.507812 0.71875 -3.3125 C 0.71875 -4.425781 1.265625 -5.191406 2.359375 -5.609375 L 5.3125 -6.375 C 5.300781 -7.269531 5.210938 -7.847656 5.046875 -8.109375 C 4.878906 -8.367188 4.519531 -8.5 3.96875 -8.5 C 3.414062 -8.5 2.941406 -8.410156 2.546875 -8.234375 L 1.828125 -7.9375 L 1.796875 -7.9375 C 1.671875 -7.875 1.5625 -7.929688 1.46875 -8.109375 C 1.21875 -8.628906 1.09375 -9.035156 1.09375 -9.328125 C 1.09375 -9.628906 1.113281 -9.796875 1.15625 -9.828125 C 1.207031 -9.867188 1.234375 -9.894531 1.234375 -9.90625 C 1.929688 -10.363281 2.828125 -10.59375 3.921875 -10.59375 C 5.015625 -10.59375 5.859375 -10.445312 6.453125 -10.15625 C 7.046875 -9.863281 7.476562 -9.332031 7.75 -8.5625 C 8.019531 -7.800781 8.15625 -6.671875 8.15625 -5.171875 L 8.109375 0 C 8.109375 0.0820312 8.09375 0.140625 8.0625 0.171875 C 8.007812 0.273438 7.75 0.328125 7.28125 0.328125 C 6.425781 0.328125 6 0.21875 6 0 Z M 3.015625 -3.265625 C 3.015625 -2.273438 3.304688 -1.753906 3.890625 -1.703125 C 4.285156 -1.703125 4.578125 -1.769531 4.765625 -1.90625 C 5.148438 -2.164062 5.34375 -3.144531 5.34375 -4.84375 C 4.625 -4.75 4.054688 -4.550781 3.640625 -4.25 C 3.222656 -3.957031 3.015625 -3.628906 3.015625 -3.265625 Z M 3.015625 -3.265625 "/></g></g></g><g fill="#57d38c" fill-opacity="1"><g transform="translate(107.116087, 24.352714)"><g><path d="M 6.25 -10.59375 C 7.269531 -10.59375 8.015625 -10.273438 8.484375 -9.640625 C 8.960938 -9.003906 9.203125 -7.882812 9.203125 -6.28125 L 9.203125 0 C 9.203125 0.0820312 9.195312 0.140625 9.1875 0.171875 C 9.113281 0.273438 8.847656 0.328125 8.390625 0.328125 C 7.929688 0.328125 7.457031 0.289062 6.96875 0.21875 C 6.488281 0.15625 6.25 0.0820312 6.25 0 L 6.234375 -6.28125 C 6.234375 -7.832031 6.117188 -8.609375 5.890625 -8.609375 C 5.398438 -8.609375 4.738281 -8.359375 3.90625 -7.859375 L 3.90625 0 C 3.90625 0.0820312 3.898438 0.140625 3.890625 0.171875 C 3.816406 0.273438 3.550781 0.328125 3.09375 0.328125 C 2.632812 0.328125 2.160156 0.289062 1.671875 0.21875 C 1.179688 0.15625 0.9375 0.0820312 0.9375 0 L 0.9375 -10.265625 C 0.9375 -10.484375 1.210938 -10.59375 1.765625 -10.59375 C 2.628906 -10.59375 3.125 -10.484375 3.25 -10.265625 C 3.25 -10.234375 3.253906 -10.21875 3.265625 -10.21875 L 3.65625 -9.4375 C 4.820312 -10.207031 5.6875 -10.59375 6.25 -10.59375 Z M 6.25 -10.59375 "/></g></g></g></svg>