<svg xmlns="http://www.w3.org/2000/svg" xmlns:xlink="http://www.w3.org/1999/xlink" width="158" zoomAndPan="magnify" viewBox="0 0 118.5 34.499999" height="46" preserveAspectRatio="xMidYMid meet" version="1.0"><defs><g/><clipPath id="f07ccb18eb"><path d="M 1.015625 5 L 27 5 L 27 34 L 1.015625 34 Z M 1.015625 5 " clip-rule="nonzero"/></clipPath></defs><g clip-path="url(#f07ccb18eb)"><path fill="#aeaeae" d="M 8.089844 33.933594 C 5.972656 33.933594 4.152344 32.390625 3.859375 30.261719 L 1.160156 10.945312 C 0.796875 8.59375 2.398438 6.464844 4.734375 6.097656 L 9.910156 5.363281 L 10.421875 8.59375 L 5.246094 9.402344 C 4.734375 9.476562 4.296875 9.988281 4.371094 10.503906 L 7.140625 29.746094 C 7.214844 30.261719 7.722656 30.703125 8.234375 30.628906 L 22.671875 28.570312 C 23.109375 28.5 23.402344 28.132812 23.328125 27.691406 L 23.109375 26.441406 L 26.390625 25.925781 L 26.539062 27.101562 C 26.828125 29.378906 25.296875 31.4375 23.039062 31.730469 L 8.597656 33.859375 C 8.453125 33.859375 8.308594 33.933594 8.089844 33.933594 Z M 8.089844 33.933594 " fill-opacity="1" fill-rule="nonzero"/></g><path fill="#848484" d="M 27.558594 27.835938 L 13.121094 27.835938 C 10.785156 27.835938 8.890625 25.925781 8.890625 23.578125 L 8.890625 4.332031 C 8.890625 1.984375 10.785156 0.0742188 13.121094 0 L 27.558594 0 C 29.890625 0 31.789062 1.910156 31.789062 4.261719 L 31.789062 23.503906 C 31.789062 25.855469 29.890625 27.765625 27.558594 27.835938 Z M 13.121094 3.304688 C 12.609375 3.304688 12.171875 3.746094 12.171875 4.261719 L 12.171875 23.503906 C 12.171875 24.019531 12.609375 24.457031 13.121094 24.457031 L 27.558594 24.457031 C 28.070312 24.457031 28.507812 24.019531 28.507812 23.503906 L 28.507812 4.332031 C 28.507812 3.820312 28.070312 3.378906 27.558594 3.378906 Z M 13.121094 3.304688 " fill-opacity="1" fill-rule="nonzero"/><path fill="#aeaeae" d="M 23.914062 14.542969 C 23.914062 16.453125 22.382812 18.070312 20.414062 18.070312 C 18.515625 18.070312 16.910156 16.527344 16.910156 14.542969 Z M 23.914062 14.542969 " fill-opacity="1" fill-rule="nonzero"/><path fill="#aeaeae" d="M 17.347656 11.238281 C 17.347656 11.972656 16.765625 12.558594 16.035156 12.558594 C 15.308594 12.558594 14.722656 11.972656 14.722656 11.238281 C 14.722656 10.503906 15.308594 9.914062 16.035156 9.914062 C 16.765625 9.914062 17.347656 10.503906 17.347656 11.238281 Z M 17.347656 11.238281 " fill-opacity="1" fill-rule="nonzero"/><path fill="#aeaeae" d="M 25.882812 11.238281 C 25.882812 11.972656 25.296875 12.558594 24.570312 12.558594 C 23.839844 12.558594 23.257812 11.972656 23.257812 11.238281 C 23.257812 10.503906 23.839844 9.914062 24.570312 9.914062 C 25.296875 9.914062 25.882812 10.503906 25.882812 11.238281 Z M 25.882812 11.238281 " fill-opacity="1" fill-rule="nonzero"/><g fill="#848484" fill-opacity="1"><g transform="translate(33.708862, 24.057)"><g><path d="M 11.515625 0 L 11.515625 -6.28125 C 11.515625 -7.832031 11.40625 -8.609375 11.1875 -8.609375 C 10.707031 -8.609375 10.015625 -8.335938 9.109375 -7.796875 C 9.171875 -7.285156 9.203125 -6.78125 9.203125 -6.28125 L 9.203125 0 C 9.203125 0.0820312 9.195312 0.140625 9.1875 0.171875 C 9.113281 0.273438 8.847656 0.328125 8.390625 0.328125 C 7.929688 0.328125 7.457031 0.289062 6.96875 0.21875 C 6.476562 0.15625 6.234375 0.0820312 6.234375 0 L 6.234375 -7.046875 C 6.203125 -8.085938 6.085938 -8.609375 5.890625 -8.609375 C 5.398438 -8.609375 4.738281 -8.359375 3.90625 -7.859375 L 3.90625 0 C 3.90625 0.0820312 3.898438 0.140625 3.890625 0.171875 C 3.816406 0.273438 3.550781 0.328125 3.09375 0.328125 C 2.632812 0.328125 2.160156 0.289062 1.671875 0.21875 C 1.179688 0.15625 0.9375 0.0820312 0.9375 0 L 0.9375 -10.265625 C 0.9375 -10.484375 1.210938 -10.59375 1.765625 -10.59375 C 2.628906 -10.59375 3.125 -10.484375 3.25 -10.265625 C 3.25 -10.234375 3.253906 -10.21875 3.265625 -10.21875 L 3.65625 -9.4375 C 4.820312 -10.207031 5.6875 -10.59375 6.25 -10.59375 C 7.457031 -10.59375 8.273438 -10.148438 8.703125 -9.265625 C 9.972656 -10.148438 10.921875 -10.59375 11.546875 -10.59375 C 12.566406 -10.59375 13.3125 -10.273438 13.78125 -9.640625 C 14.257812 -9.003906 14.5 -7.882812 14.5 -6.28125 L 14.5 0 C 14.5 0.0820312 14.492188 0.140625 14.484375 0.171875 C 14.410156 0.273438 14.140625 0.328125 13.671875 0.328125 C 13.210938 0.328125 12.738281 0.289062 12.25 0.21875 C 11.757812 0.15625 11.515625 0.0820312 11.515625 0 Z M 11.515625 0 "/></g></g></g><g fill="#848484" fill-opacity="1"><g transform="translate(49.109699, 24.057)"><g><path d="M 0.96875 0 L 0.96875 -10.265625 C 0.96875 -10.484375 1.21875 -10.59375 1.71875 -10.59375 C 2.21875 -10.59375 2.6875 -10.554688 3.125 -10.484375 C 3.5625 -10.421875 3.78125 -10.347656 3.78125 -10.265625 L 3.78125 0 C 3.78125 0.0820312 3.773438 0.140625 3.765625 0.171875 C 3.691406 0.273438 3.425781 0.328125 2.96875 0.328125 C 2.519531 0.328125 2.070312 0.289062 1.625 0.21875 C 1.1875 0.15625 0.96875 0.0820312 0.96875 0 Z M 2.25 -12.90625 C 1.257812 -12.90625 0.765625 -13.398438 0.765625 -14.390625 C 0.765625 -15.390625 1.257812 -15.890625 2.25 -15.890625 C 3.25 -15.890625 3.75 -15.390625 3.75 -14.390625 C 3.75 -13.398438 3.25 -12.90625 2.25 -12.90625 Z M 2.25 -12.90625 "/></g></g></g><g fill="#848484" fill-opacity="1"><g transform="translate(53.802304, 24.057)"><g><path d="M 8.515625 -0.4375 L 8.515625 -9.828125 L 7.171875 -7.328125 L 5.09375 -7.328125 L 3.828125 -9.78125 L 3.828125 -0.453125 C 3.828125 -0.203125 3.820312 -0.0351562 3.8125 0.046875 C 3.75 0.234375 3.476562 0.328125 3 0.328125 C 1.625 0.328125 0.9375 0.0703125 0.9375 -0.4375 L 0.9375 -15.109375 C 0.9375 -15.628906 1.410156 -15.890625 2.359375 -15.890625 C 3.304688 -15.890625 3.878906 -15.632812 4.078125 -15.125 L 6.171875 -9.78125 L 8.359375 -15.140625 C 8.460938 -15.441406 8.59375 -15.640625 8.75 -15.734375 C 8.914062 -15.835938 9.195312 -15.890625 9.59375 -15.890625 C 10.59375 -15.890625 11.097656 -15.617188 11.109375 -15.078125 L 11.4375 -8.921875 L 11.4375 -0.578125 C 11.4375 -0.160156 11.398438 0.09375 11.328125 0.1875 C 11.253906 0.28125 11.003906 0.328125 10.578125 0.328125 C 10.160156 0.328125 9.820312 0.3125 9.5625 0.28125 C 9.300781 0.257812 9.0625 0.1875 8.84375 0.0625 C 8.625 -0.0507812 8.515625 -0.21875 8.515625 -0.4375 Z M 8.515625 -0.4375 "/></g></g></g><g fill="#848484" fill-opacity="1"><g transform="translate(66.143651, 24.057)"><g><path d="M 4.703125 0.328125 C 3.222656 0.328125 2.195312 -0.0664062 1.625 -0.859375 C 1.050781 -1.660156 0.765625 -3.097656 0.765625 -5.171875 C 0.765625 -6.660156 0.894531 -7.796875 1.15625 -8.578125 C 1.414062 -9.359375 1.8125 -9.890625 2.34375 -10.171875 C 2.875 -10.453125 3.65625 -10.59375 4.6875 -10.59375 C 5.726562 -10.59375 6.515625 -10.445312 7.046875 -10.15625 C 7.578125 -9.863281 7.960938 -9.320312 8.203125 -8.53125 C 8.453125 -7.75 8.578125 -6.632812 8.578125 -5.1875 C 8.578125 -5.101562 8.578125 -5.019531 8.578125 -4.9375 C 8.578125 -4.851562 8.414062 -4.773438 8.09375 -4.703125 C 7.769531 -4.640625 7.382812 -4.609375 6.9375 -4.609375 L 3.75 -4.609375 C 3.769531 -2.992188 3.882812 -2.078125 4.09375 -1.859375 C 4.21875 -1.753906 4.421875 -1.703125 4.703125 -1.703125 C 6.503906 -1.703125 7.738281 -1.789062 8.40625 -1.96875 C 8.425781 -1.976562 8.445312 -1.984375 8.46875 -1.984375 C 8.5625 -2.015625 8.640625 -1.957031 8.703125 -1.8125 C 8.765625 -1.675781 8.796875 -1.351562 8.796875 -0.84375 C 8.796875 -0.332031 8.6875 -0.0507812 8.46875 0 C 7.894531 0.21875 6.640625 0.328125 4.703125 0.328125 Z M 3.75 -7.875 L 3.75 -6.265625 L 5.828125 -6.265625 C 5.773438 -7.867188 5.617188 -8.671875 5.359375 -8.671875 C 4.890625 -8.671875 4.503906 -8.597656 4.203125 -8.453125 C 3.898438 -8.316406 3.75 -8.125 3.75 -7.875 Z M 3.75 -7.875 "/></g></g></g><g fill="#848484" fill-opacity="1"><g transform="translate(75.528859, 24.057)"><g><path d="M 3.3125 0.328125 C 2.289062 0.328125 1.539062 -0.0859375 1.0625 -0.921875 C 0.59375 -1.753906 0.359375 -3.203125 0.359375 -5.265625 C 0.359375 -7.335938 0.65625 -8.742188 1.25 -9.484375 C 1.851562 -10.222656 2.988281 -10.59375 4.65625 -10.59375 L 5.640625 -10.59375 L 5.640625 -15.5625 C 5.640625 -15.78125 5.878906 -15.890625 6.359375 -15.890625 C 6.847656 -15.890625 7.25 -15.859375 7.5625 -15.796875 C 7.882812 -15.734375 8.050781 -15.65625 8.0625 -15.5625 L 8.421875 -8.953125 L 8.421875 0 C 8.421875 0.0820312 8.414062 0.140625 8.40625 0.171875 C 8.332031 0.273438 8.070312 0.328125 7.625 0.328125 C 7.1875 0.328125 6.8125 0.296875 6.5 0.234375 C 6.195312 0.171875 6.046875 0.09375 6.046875 0 L 5.640625 -0.640625 C 5.242188 -0.378906 4.960938 -0.191406 4.796875 -0.078125 C 4.335938 0.191406 3.84375 0.328125 3.3125 0.328125 Z M 4.65625 -8.609375 C 4.144531 -8.609375 3.796875 -8.394531 3.609375 -7.96875 C 3.421875 -7.550781 3.328125 -6.84375 3.328125 -5.84375 C 3.328125 -4.84375 3.328125 -4.179688 3.328125 -3.859375 C 3.335938 -3.546875 3.351562 -3.179688 3.375 -2.765625 C 3.394531 -2.023438 3.488281 -1.65625 3.65625 -1.65625 C 4.15625 -1.65625 4.816406 -1.90625 5.640625 -2.40625 L 5.640625 -8.609375 Z M 4.65625 -8.609375 "/></g></g></g><g fill="#848484" fill-opacity="1"><g transform="translate(84.852059, 24.057)"><g><path d="M 0.96875 0 L 0.96875 -10.265625 C 0.96875 -10.484375 1.21875 -10.59375 1.71875 -10.59375 C 2.21875 -10.59375 2.6875 -10.554688 3.125 -10.484375 C 3.5625 -10.421875 3.78125 -10.347656 3.78125 -10.265625 L 3.78125 0 C 3.78125 0.0820312 3.773438 0.140625 3.765625 0.171875 C 3.691406 0.273438 3.425781 0.328125 2.96875 0.328125 C 2.519531 0.328125 2.070312 0.289062 1.625 0.21875 C 1.1875 0.15625 0.96875 0.0820312 0.96875 0 Z M 2.25 -12.90625 C 1.257812 -12.90625 0.765625 -13.398438 0.765625 -14.390625 C 0.765625 -15.390625 1.257812 -15.890625 2.25 -15.890625 C 3.25 -15.890625 3.75 -15.390625 3.75 -14.390625 C 3.75 -13.398438 3.25 -12.90625 2.25 -12.90625 Z M 2.25 -12.90625 "/></g></g></g><g fill="#848484" fill-opacity="1"><g transform="translate(89.544663, 24.057)"><g><path d="M 6.6875 -7.8125 L 6.5625 -7.859375 L 5.765625 -8.25 C 5.171875 -8.488281 4.660156 -8.609375 4.234375 -8.609375 C 3.617188 -8.578125 3.3125 -8.28125 3.3125 -7.71875 C 3.3125 -7.5 3.429688 -7.316406 3.671875 -7.171875 C 3.910156 -7.035156 4.101562 -6.929688 4.25 -6.859375 C 4.40625 -6.785156 4.628906 -6.675781 4.921875 -6.53125 C 5.953125 -6.09375 6.71875 -5.601562 7.21875 -5.0625 C 7.726562 -4.53125 7.984375 -4 7.984375 -3.46875 C 7.984375 -2.332031 7.679688 -1.414062 7.078125 -0.71875 C 6.472656 -0.0195312 5.648438 0.328125 4.609375 0.328125 C 3.566406 0.328125 2.75 0.191406 2.15625 -0.078125 C 1.5625 -0.359375 1.0625 -0.753906 0.65625 -1.265625 C 0.601562 -1.285156 0.578125 -1.320312 0.578125 -1.375 C 0.578125 -1.4375 0.585938 -1.507812 0.609375 -1.59375 C 0.628906 -1.675781 0.789062 -1.898438 1.09375 -2.265625 C 1.394531 -2.628906 1.640625 -2.8125 1.828125 -2.8125 C 1.878906 -2.8125 1.929688 -2.785156 1.984375 -2.734375 C 2.710938 -2.148438 3.421875 -1.859375 4.109375 -1.859375 C 4.503906 -1.859375 4.796875 -1.96875 4.984375 -2.1875 C 5.179688 -2.414062 5.28125 -2.660156 5.28125 -2.921875 C 5.28125 -3.179688 5.164062 -3.394531 4.9375 -3.5625 C 4.71875 -3.726562 4.445312 -3.890625 4.125 -4.046875 C 3.800781 -4.203125 3.625 -4.285156 3.59375 -4.296875 C 3.570312 -4.316406 3.535156 -4.335938 3.484375 -4.359375 C 3.429688 -4.390625 3.382812 -4.410156 3.34375 -4.421875 C 2.644531 -4.765625 2.050781 -5.195312 1.5625 -5.71875 C 1.070312 -6.238281 0.828125 -6.816406 0.828125 -7.453125 C 0.828125 -8.554688 1.113281 -9.351562 1.6875 -9.84375 C 2.257812 -10.34375 3.164062 -10.59375 4.40625 -10.59375 C 4.875 -10.59375 5.320312 -10.535156 5.75 -10.421875 C 6.332031 -10.273438 6.75 -10.097656 7 -9.890625 L 7.015625 -9.890625 C 7.117188 -9.816406 7.179688 -9.734375 7.203125 -9.640625 C 7.222656 -9.546875 7.210938 -9.335938 7.171875 -9.015625 C 7.035156 -8.210938 6.875 -7.8125 6.6875 -7.8125 Z M 6.6875 -7.8125 "/></g></g></g><g fill="#848484" fill-opacity="1"><g transform="translate(98.123655, 24.057)"><g><path d="M 5.671875 -0.640625 C 4.953125 0.00390625 4.3125 0.328125 3.75 0.328125 C 3.195312 0.328125 2.742188 0.289062 2.390625 0.21875 C 2.046875 0.144531 1.738281 -0.015625 1.46875 -0.265625 C 1.195312 -0.523438 1.003906 -0.894531 0.890625 -1.375 C 0.773438 -1.863281 0.71875 -2.507812 0.71875 -3.3125 C 0.71875 -4.425781 1.265625 -5.191406 2.359375 -5.609375 L 5.3125 -6.375 C 5.300781 -7.269531 5.210938 -7.847656 5.046875 -8.109375 C 4.878906 -8.367188 4.519531 -8.5 3.96875 -8.5 C 3.414062 -8.5 2.941406 -8.410156 2.546875 -8.234375 L 1.828125 -7.9375 L 1.796875 -7.9375 C 1.671875 -7.875 1.5625 -7.929688 1.46875 -8.109375 C 1.21875 -8.628906 1.09375 -9.035156 1.09375 -9.328125 C 1.09375 -9.628906 1.113281 -9.796875 1.15625 -9.828125 C 1.207031 -9.867188 1.234375 -9.894531 1.234375 -9.90625 C 1.929688 -10.363281 2.828125 -10.59375 3.921875 -10.59375 C 5.015625 -10.59375 5.859375 -10.445312 6.453125 -10.15625 C 7.046875 -9.863281 7.476562 -9.332031 7.75 -8.5625 C 8.019531 -7.800781 8.15625 -6.671875 8.15625 -5.171875 L 8.109375 0 C 8.109375 0.0820312 8.09375 0.140625 8.0625 0.171875 C 8.007812 0.273438 7.75 0.328125 7.28125 0.328125 C 6.425781 0.328125 6 0.21875 6 0 Z M 3.015625 -3.265625 C 3.015625 -2.273438 3.304688 -1.753906 3.890625 -1.703125 C 4.285156 -1.703125 4.578125 -1.769531 4.765625 -1.90625 C 5.148438 -2.164062 5.34375 -3.144531 5.34375 -4.84375 C 4.625 -4.75 4.054688 -4.550781 3.640625 -4.25 C 3.222656 -3.957031 3.015625 -3.628906 3.015625 -3.265625 Z M 3.015625 -3.265625 "/></g></g></g><g fill="#848484" fill-opacity="1"><g transform="translate(107.116087, 24.057)"><g><path d="M 6.25 -10.59375 C 7.269531 -10.59375 8.015625 -10.273438 8.484375 -9.640625 C 8.960938 -9.003906 9.203125 -7.882812 9.203125 -6.28125 L 9.203125 0 C 9.203125 0.0820312 9.195312 0.140625 9.1875 0.171875 C 9.113281 0.273438 8.847656 0.328125 8.390625 0.328125 C 7.929688 0.328125 7.457031 0.289062 6.96875 0.21875 C 6.488281 0.15625 6.25 0.0820312 6.25 0 L 6.234375 -6.28125 C 6.234375 -7.832031 6.117188 -8.609375 5.890625 -8.609375 C 5.398438 -8.609375 4.738281 -8.359375 3.90625 -7.859375 L 3.90625 0 C 3.90625 0.0820312 3.898438 0.140625 3.890625 0.171875 C 3.816406 0.273438 3.550781 0.328125 3.09375 0.328125 C 2.632812 0.328125 2.160156 0.289062 1.671875 0.21875 C 1.179688 0.15625 0.9375 0.0820312 0.9375 0 L 0.9375 -10.265625 C 0.9375 -10.484375 1.210938 -10.59375 1.765625 -10.59375 C 2.628906 -10.59375 3.125 -10.484375 3.25 -10.265625 C 3.25 -10.234375 3.253906 -10.21875 3.265625 -10.21875 L 3.65625 -9.4375 C 4.820312 -10.207031 5.6875 -10.59375 6.25 -10.59375 Z M 6.25 -10.59375 "/></g></g></g></svg>